<?xml version="1.0" encoding="UTF-8"?>
<svg id="Layer_2" xmlns="http://www.w3.org/2000/svg" viewBox="0 0 81.51 72.33">
  <defs>
    <style>
      .cls-1 {
        fill: #5689d6;
      }
    </style>
  </defs>
  <g id="Layer_1-2" data-name="Layer_1">
    <g>
      <path class="cls-1" d="M81.43,10.21c-.29-.43-.7-1.06-1.09-1.08-1.87-.11-3.75-.05-5.79-.05,0,1.82.03,3.51,0,5.21-.09,5.14-3.76,8.81-8.9,8.82-16.57.02-33.14.02-49.72,0-5.3,0-8.95-3.69-9.01-8.99-.02-1.61,0-3.23,0-5.06-1.73,0-3.3,0-4.86,0-1.92,0-2.05.15-2.05,2.09v58.88c0,2.18.13,2.31,2.27,2.31h76.93c2.14,0,2.26-.13,2.26-2.32,0-19.62,0-39.25,0-58.88,0-.31.11-.71-.03-.92ZM4.96,35.28c.03-3.68,0-3.65,3.67-3.69,3.85-.03,3.6,0,3.6,3.6,0,3.83.24,3.69-3.64,3.65-3.59.02-3.65.3-3.62-3.57ZM10.87,60.05c-1.53-.04-3.05-.04-4.58,0-.9.02-1.33-.33-1.33-1.25.01-4.09,0-8.17,0-12.26,0-.84.39-1.24,1.23-1.23,1.62,0,3.23,0,4.85,0,.86,0,1.19.44,1.18,1.27-.02,2.02,0,4.04,0,6.06,0,1.18,0,2.36,0,3.54,0,.84,0,1.68.02,2.52.02.98-.37,1.38-1.36,1.35ZM49.02,35.26c.02-3.66,0-3.66,3.67-3.66s3.57,0,3.6,3.62c.03,3.97,0,3.63-3.69,3.62-3.7.02-3.59.26-3.58-3.58ZM25.66,35.2c.03-3.6,0-3.58,3.59-3.61,3.92-.03,3.69-.04,3.66,3.66.04,3.75.18,3.59-3.58,3.58-3.73-.01-3.71.29-3.67-3.64ZM54.23,67.31c-4.49,0-8.98,0-13.47,0s-8.89,0-13.33,0c-1.94,0-2.31-.37-2.31-2.25,0-5.84,0-11.67,0-17.51,0-1.82.4-2.24,2.2-2.24,8.94,0,17.87,0,26.81,0,1.82,0,2.24.42,2.24,2.2,0,5.88,0,11.76,0,17.65,0,1.74-.41,2.15-2.13,2.15ZM76.5,52.63c0,2.02-.02,4.04,0,6.06.01.96-.37,1.39-1.36,1.36-1.53-.04-3.05-.04-4.58,0-.9.02-1.33-.31-1.32-1.25.02-4.09.02-8.17,0-12.26,0-.85.36-1.25,1.2-1.24,1.57,0,3.14.02,4.71,0,.99-.02,1.36.46,1.34,1.4-.03,1.98,0,3.95,0,5.93ZM72.76,38.84q-3.51,0-3.51-3.51c-.01-3.8-.3-3.78,3.71-3.74,3.54.03,3.52,0,3.55,3.54.02,4.02.05,3.73-3.75,3.71Z"/>
      <path class="cls-1" d="M69.53,4.1c-.01-2.63-1.46-4.09-4.09-4.1C48.97,0,32.51,0,16.03,0c-2.63,0-4.08,1.47-4.1,4.09-.02,3.19,0,6.37,0,9.56,0,3.08,1.33,4.41,4.43,4.41,8.12,0,16.24,0,24.37,0s16.51,0,24.77,0c2.57,0,4.01-1.44,4.03-3.99.02-3.32.02-6.64,0-9.96ZM28.15,12.83c-1.61,1.36-4.04,1.34-5.76.11-1.66-1.19-2.39-3.33-1.8-5.25.63-2.04,2.52-3.44,4.73-3.62.87.33,1.8.54,2.57,1.02.39.25.8,1.11.65,1.44-.37.8-.99.32-1.55-.03-2.02-1.25-4.56-.1-4.83,2.17-.16,1.34.35,2.4,1.53,3.05,1.22.67,2.43.57,3.53-.29.54-.42,1.13-1.09,1.61-.18.18.33-.26,1.24-.68,1.58ZM39.42,11.98c.28.22.65.58.63.86-.02.28-.46.77-.71.76-1.32-.01-2.64-.15-3.96-.24-.21-.01-.43.05-.64.06-1.37.06-2.74.17-4.11.13-.22,0-.61-.65-.62-1.01-.06-2.33-.07-4.66.01-6.99.01-.36.56-.71.86-1.07.27.39.75.77.77,1.16.08,2.05.04,4.1.04,6.45h5.02v-5.72c-.54-.25-1.16-.33-1.34-.66-.39-.68-.1-1.22.77-1.25.94-.02,1.89-.09,2.82.03.41.05.76.51,1.14.79-.32.29-.63.59-.98.85-.12.09-.32.07-.52.11v5.51c.27.06.61.05.82.22ZM48.18,12.17c-.02.48-.46.95-.71,1.42-.43-.26-.98-.42-1.27-.78-1.2-1.49-2.33-3.05-3.48-4.58-.1.04-.2.07-.3.11,0,1.38.06,2.76-.04,4.13-.03.4-.5.78-.76,1.17-.3-.4-.85-.79-.87-1.21-.09-2.24-.07-4.48-.01-6.72.01-.4.38-.8.58-1.19.4.22.92.35,1.18.68,1.25,1.58,2.43,3.21,3.95,4.8,0-1.35,0-2.69,0-4.04,0-.66-.12-1.48.9-1.46,1.02.02.85.86.85,1.5.01,2.06.05,4.13-.03,6.18ZM52.92,11.97c.3.25.73.63.7.91-.03.29-.53.7-.86.74-.88.11-1.8.12-2.68,0-.44-.05-.83-.45-1.25-.7.37-.34.73-.69,1.12-1.01.09-.08.25-.09.43-.14v-5.53c-.34-.05-.72,0-.93-.15-.28-.21-.56-.58-.58-.9-.01-.22.41-.65.65-.67,1.16-.07,2.33-.07,3.5,0,.24.01.61.42.64.67.03.27-.21.67-.45.85-.22.17-.6.13-1.03.2v5.51c.27.06.58.06.76.21ZM62.08,12.77c-1.6,1.25-3.38,1.45-5.18.56-1.76-.86-2.64-2.36-2.7-4.35.12-1.82.93-3.25,2.56-4.14,1.63-.89,3.31-.85,4.85.17.43.28.9,1.18.75,1.53-.35.81-.99.31-1.55-.04-1.48-.93-3.2-.63-4.21.69-.96,1.25-.85,2.95.25,4.05,1.11,1.1,2.87,1.2,4.18.19.5-.38.97-1.01,1.58-.32.65.74-.01,1.25-.53,1.65Z"/>
      <path class="cls-1" d="M12.22,52.64c0,1.18,0,2.36,0,3.54,0-1.18,0-2.36,0-3.54,0-2.02-.01-4.04,0-6.06-.02,2.02,0,4.04,0,6.06Z"/>
    </g>
  </g>
</svg>