<?xml version="1.0" encoding="UTF-8"?>
<svg id="Layer_2" xmlns="http://www.w3.org/2000/svg" viewBox="0 0 67.61 85.82">
  <defs>
    <style>
      .cls-1 {
        fill: #5689d6;
      }
    </style>
  </defs>
  <g id="Layer_1-2" data-name="Layer_1">
    <g>
      <path class="cls-1" d="M50.2,7.57c-1.62-.9-2.47-1.71-2.32-3.7.16-2.21-1.57-3.84-3.72-3.85-6.87-.03-13.74-.03-20.61,0-2.16.01-3.68,1.52-3.85,3.68-.04.5-.07,1.02,0,1.52.12.89-.28,1.29-1.05,1.68C-.24,16.32-5.92,40.81,6.91,57.56c1.21,1.59,2.63,3.02,3.96,4.53.23-.22.3-.26.32-.31,2.41-5.55,4.84-11.1,7.22-16.66.15-.34.05-.83-.05-1.23-.45-1.9-1.2-3.77-1.35-5.69-.56-6.92,3.39-13.5,9.61-16.38,6.44-2.98,13.82-1.76,18.91,3.14,5.04,4.83,6.53,12.17,3.79,18.69-.27.64-.28,1.18,0,1.82,1.95,4.42,3.87,8.87,5.8,13.3.47,1.08.94,2.15,1.45,3.31.34-.3.59-.51.83-.74,16.22-15.84,12.63-42.84-7.2-53.77ZM12.48,47.71c-.32.16-.61.3-.9.44-4.19-6.86-4.26-19.83,4.2-28.29.26.23.52.46.84.74-7.01,8.15-8.38,17.14-4.14,27.12ZM38.83,14.7c0,.66-.33.99-1.01.98-.95-.01-1.91,0-2.86,0-.4,0-.8,0-1.19,0-.75,0-1.5,0-2.25,0h-.01c-.25,0-.51,0-.76,0-.28,0-.55,0-.83.01-.77.02-1.13-.31-1.12-1.08.01-1.42.01-2.84,0-4.26,0-.76.33-1.1,1.11-1.09,2.6.02,5.21.02,7.81,0,.78,0,1.12.33,1.12,1.08,0,1.45,0,2.91,0,4.36ZM56.15,48.18c-.36-.16-.66-.29-1.01-.44,4.24-9.87,2.91-18.87-4.1-27.08.11-.13.22-.28.36-.42.12-.12.25-.22.38-.33,6.79,6.21,9.49,18.68,4.37,28.27Z"/>
      <path class="cls-1" d="M33.83,77.45c-5.89,0-11.77,0-17.66,0-3.53,0-5.49-2.03-5.57-5.52-.07-2.8.51-5.4,1.65-7.96,2.7-6.05,5.31-12.14,7.93-18.22.51-1.18,1.33-1.69,2.6-1.69,7.34.02,14.68.02,22.02,0,1.31,0,2.13.53,2.65,1.75,2.79,6.49,5.62,12.96,8.45,19.43,1.12,2.56,1.28,5.25,1.02,7.96-.2,2.09-1.96,3.81-4.03,4.13-.56.09-1.14.11-1.72.11-5.78,0-11.57,0-17.35,0Z"/>
      <path class="cls-1" d="M15.68,79.02h36.32c0,1.57.08,3.08-.03,4.58-.08,1.17-1.13,2.03-2.34,2.19-.23.03-.47.02-.71.02-10.07,0-20.15,0-30.22,0-2.12,0-3.12-1-3.14-3.09,0-1.12,0-2.23.01-3.35,0-.09.05-.19.1-.36Z"/>
      <path class="cls-1" d="M34.96,15.68c-.4,0-.8,0-1.19,0-1.01,0-2.02-.01-3.03,0,1.01,0,2.02,0,3.03,0,.4,0,.8,0,1.19,0Z"/>
    </g>
  </g>
</svg>