<?xml version="1.0" encoding="UTF-8"?>
<svg id="Layer_2" xmlns="http://www.w3.org/2000/svg" viewBox="0 0 72.75 69.95">
  <defs>
    <style>
      .cls-1 {
        fill: #feffff;
      }
    </style>
  </defs>
  <g id="Layer_1-2" data-name="Layer_1">
    <g>
      <path class="cls-1" d="M9.19,22.26c-1.13.83-2.24,1.65-3.35,2.46-.34.25-.7.5-1.03.77-1.47,1.21-1.73,3.28-.61,4.8,1.12,1.52,3.19,1.92,4.76.83,1.81-1.26,3.58-2.6,5.36-3.9.14-.1.29-.2.5-.36,1.4,1.15,2.81,2.32,4.22,3.47,3.21,2.62,6.44,5.22,9.65,7.84.74.6,1.53.88,2.5.84,1.92-.08,3.66.51,5.22,1.64,1.12.81,2.25,1.6,3.34,2.37-.65.55-1.34,1.04-1.91,1.64-.83.87-1.16,1.97-1.25,3.16-.02.23-.15.54-.34.66-2.13,1.44-2.95,3.4-2.41,5.92.01.07,0,.14,0,.26-1.29.45-2.14,1.43-2.88,2.52-.27.39-.56.78-.84,1.16-.51.67-1.21.87-1.84.53-.61-.32-.81-.93-.55-1.77.3-.98.58-1.98.95-2.94.59-1.52.33-2.8-.75-4.03-1.41-1.6-2.71-3.3-4.07-4.94-.5-.6-1.12-.69-1.66-.3-.56.41-.64,1.08-.2,1.73.08.12.18.24.28.36,1.3,1.59,2.6,3.2,3.92,4.77.4.47.51.89.28,1.5-.4,1.05-.71,2.14-1.04,3.22-.57,1.88.17,3.7,1.84,4.54,1.61.81,3.52.31,4.69-1.23.5-.66.98-1.34,1.49-1.99.85-1.08,2.24-1.3,3.27-.54,1.03.77,1.23,2.16.4,3.28-1.42,1.95-2.86,3.88-4.32,5.8-.93,1.23-2.2,1.5-3.61.83-1.95-.93-3.89-1.87-5.84-2.81-1.43-.69-2.26-1.81-2.41-3.39-.19-2.03-.42-4.05-.53-6.08-.12-2.24-1-3.99-2.85-5.29-5.19-3.66-10.35-7.37-15.55-11.02C.67,37.63,0,36.41,0,34.73c.03-5.65.02-11.31,0-16.96,0-.68.11-1.26.79-1.56.64-.28,1.15,0,1.65.41,2.16,1.8,4.33,3.59,6.5,5.38.07.06.13.14.24.26Z"/>
      <path class="cls-1" d="M43.19,5.62c-.05,1.99-.85,3.69-1.91,5.27-2.26,3.39-5.27,6.04-8.49,8.46-.52.39-1.08.41-1.6.02-3.33-2.49-6.44-5.22-8.71-8.76-1.18-1.85-2.02-3.83-1.63-6.11.36-2.14,2.11-4.07,3.95-4.37,1.04-.17,2.04.06,2.88.63,1.13.77,2.22,1.63,3.22,2.56,1.01.93,1.16.95,2.17-.03.79-.77,1.6-1.53,2.52-2.14,3.44-2.28,7.22-.38,7.57,3.75.02.25.03.5.04.72Z"/>
      <path class="cls-1" d="M48.26,19.1c0-3.74,0-7.48,0-11.22,0-1.42.43-2.06,1.73-2.6,1.16-.48,2.31-.98,3.49-1.42.79-.29,1.44-.74,1.8-1.5.88-1.85,2.31-2.57,4.34-2.32,1.01.12,2.06.03,3.09.02,1.02-.01,1.79.4,2.33,1.26.11.17.23.33.33.51.6,1.11,1.46,1.86,2.69,2.25.98.31,1.91.76,2.86,1.15,1.42.58,1.85,1.22,1.85,2.75,0,5.67,0,11.35,0,17.02,0,1.83,0,3.67,0,5.5,0,1.39-.47,2.05-1.77,2.58-1.16.47-2.35.88-3.47,1.45-.64.32-1.38.78-1.69,1.38-.99,1.9-2.45,2.64-4.55,2.39-.99-.12-2.01-.03-3.01-.02-.95,0-1.8-.33-2.21-1.17-.88-1.78-2.36-2.72-4.17-3.28-.64-.2-1.26-.5-1.88-.76-1.28-.53-1.73-1.19-1.73-2.6,0-3.79,0-7.58,0-11.37ZM50.54,19.1c0,3.54.01,7.09,0,10.63,0,.76.3,1.23,1,1.5.61.23,1.19.53,1.81.73,1.85.58,3.31,1.6,4.29,3.33.19.35.79.6,1.23.65.97.1,1.96-.01,2.94.04.83.05,1.39-.23,1.79-.96.78-1.43,1.98-2.36,3.54-2.86.74-.24,1.45-.57,2.17-.87,1.02-.42,1.17-.64,1.17-1.75,0-6.53,0-13.06,0-19.6,0-2.6.21-2.38-2.23-3.29-2.05-.76-3.91-1.68-4.98-3.74-.15-.28-.7-.47-1.08-.5-.97-.07-1.96.01-2.94-.04-.84-.04-1.44.22-1.85.98-.75,1.39-1.91,2.29-3.41,2.79-.81.27-1.57.66-2.38.95-.78.28-1.07.78-1.07,1.6.03,3.47.01,6.93.01,10.4Z"/>
      <path class="cls-1" d="M40.83,65.45c.5.99.62,1.91.19,2.85-.71,1.54-2.64,2.14-4.08,1.22-.78-.5-1.48-1.11-2.25-1.71,1.28-1.71,2.54-3.36,3.76-5.05.49-.68,1.01-1.4,1.28-2.19.85-2.4-.3-4.88-2.67-5.78-.62-.24-.85-.64-.96-1.2-.4-2.1,1.44-3.98,3.83-3.29-.27-.44-.59-.85-.78-1.3-.46-1.14-.09-2.43.84-3.2.95-.78,2.28-.96,3.3-.25,2.03,1.43,4.03,2.9,5.98,4.45,1.08.86,1.27,2.3.64,3.49-.6,1.15-1.85,1.71-3.18,1.43-.12-.02-.24-.05-.41-.03,1.46,1.03,2.23,2.32,1.44,4.05-.63,1.38-1.86,1.79-3.33,1.58,1.28,1.79,1.42,2.88.54,4.12-.85,1.2-1.97,1.43-4.15.81Z"/>
      <path class="cls-1" d="M44.83,38.47c-.08-.06-.17-.12-.26-.19-.07-.07-.12-.16-.15-.25.27.24.43.39.41.43Z"/>
      <path class="cls-1" d="M39.46,33.01c.07-.07.25-.13.32-.09l-.32.09Z"/>
      <path class="cls-1" d="M44.68,35.61s-.07-.05-.12-.08c0,0,0-.02,0-.02.03.02.07.05.1.07.01.01.02.02.02.03Z"/>
      <path class="cls-1" d="M61.42,40.63c-.05.25-.06.44-.12.61-1.19,3.4-5.3,4.91-8.35,2.94-2.82-1.83-5.52-3.83-8.26-5.77-.04-.03-.09-.07-.13-.12.1.07.19.13.26.19.01-.04-.14-.19-.41-.43.03.08.08.17.15.25-2.83-1.99-12.93-9.06-15.21-10.67-2.55-1.79-5.09-3.58-7.64-5.37-1.69-1.19-3.03-1.17-4.69.05-2.91,2.13-5.82,4.28-8.74,6.42-.18.13-.36.27-.55.39-.61.39-1.29.28-1.66-.26-.34-.5-.23-1.18.32-1.6,1.34-1.01,2.7-2,4.06-2.99,1.74-1.28,3.48-2.55,5.22-3.83,2.45-1.79,4.89-1.8,7.37-.06,5.32,3.74,10.64,7.47,15.95,11.21.22.16,5.27,3.52,5.65,3.99-.03-.02-.07-.05-.1-.07,0,0,0,.02,0,.02.05.03.09.06.12.08,0,0-.01-.02-.02-.03,2.25,1.58,4.41,3.09,6.57,4.61.9.63,1.79,1.29,2.71,1.9,1.74,1.16,3.75.73,4.93-1.01.15-.22.48-.4.75-.44.57-.07,1.15-.02,1.81-.02Z"/>
      <path class="cls-1" d="M44.68,35.61s-.07-.05-.12-.08c0,0,0-.02,0-.02.03.02.07.05.1.07.01.01.02.02.02.03Z"/>
      <path class="cls-1" d="M44.83,38.47c-.08-.06-.17-.12-.26-.19-.07-.07-.12-.16-.15-.25.27.24.43.39.41.43Z"/>
      <path class="cls-1" d="M52.91,16.68h15.14c.01.27.03.52.03.76,0,3.64-.01,7.29.01,10.93,0,.62-.17.98-.78,1.18-.62.2-1.21.49-1.82.73-1.43.55-2.57,1.46-3.4,2.74-.28.43-.6.64-1.11.59-.4-.03-.81.04-1.2-.02-.25-.04-.58-.16-.69-.35-1.14-1.89-2.96-2.78-4.92-3.52-1.32-.5-1.26-.23-1.26-1.81,0-3.44,0-6.88,0-10.33,0-.29,0-.59,0-.91Z"/>
    </g>
  </g>
</svg>