<?xml version="1.0" encoding="UTF-8"?>
<svg id="Layer_2" xmlns="http://www.w3.org/2000/svg" viewBox="0 0 64 51.2">
  <defs>
    <style>
      .cls-1 {
        fill: #feffff;
      }
    </style>
  </defs>
  <g id="Layer_1-2" data-name="Layer_1">
    <path class="cls-1" d="M0,4.8C0,2.15,2.15,0,4.8,0h32c2.65,0,4.8,2.15,4.8,4.8v4.8h5.07c1.7,0,3.33.67,4.53,1.87l7.73,7.73c1.2,1.2,1.87,2.83,1.87,4.53v11.47c1.77,0,3.2,1.43,3.2,3.2s-1.43,3.2-3.2,3.2h-3.2c0,5.3-4.3,9.6-9.6,9.6s-9.6-4.3-9.6-9.6h-12.8c0,5.3-4.3,9.6-9.6,9.6s-9.6-4.3-9.6-9.6h-1.6c-2.65,0-4.8-2.15-4.8-4.8V4.8ZM41.6,25.6h12.8v-1.87l-7.73-7.73h-5.07v9.6ZM16,46.4c2.65,0,4.8-2.15,4.8-4.8s-2.15-4.8-4.8-4.8-4.8,2.15-4.8,4.8,2.15,4.8,4.8,4.8ZM52.8,41.6c0-2.65-2.15-4.8-4.8-4.8s-4.8,2.15-4.8,4.8,2.15,4.8,4.8,4.8,4.8-2.15,4.8-4.8ZM20.8,27.2c3.98,0,7.2-2.96,7.2-6.6,0-2.7-3.94-8.29-5.99-11.03-.61-.82-1.81-.82-2.42,0-2.05,2.73-5.99,8.33-5.99,11.03,0,3.65,3.22,6.6,7.2,6.6Z"/>
  </g>
</svg>