<?xml version="1.0" encoding="UTF-8"?>
<svg xmlns="http://www.w3.org/2000/svg" viewBox="0 0 768.87 1235.98">
  <defs>
    <style>
      .cls-1 {
        fill: #5689d6;
      }

      .cls-2, .cls-3 {
        fill: #81a2b3;
      }

      .cls-2, .cls-3, .cls-4 {
        mix-blend-mode: multiply;
      }

      .cls-2, .cls-4 {
        opacity: .5;
      }

      .cls-3 {
        opacity: .3;
      }

      .cls-5 {
        fill: #0e52b5;
      }

      .cls-6 {
        fill: #fff;
      }

      .cls-7 {
        fill: #eca0a4;
      }

      .cls-8 {
        fill: #003d31;
      }

      .cls-9 {
        fill: none;
        stroke: #231f20;
        stroke-linecap: round;
        stroke-miterlimit: 10;
        stroke-width: 4.08px;
      }

      .cls-10 {
        isolation: isolate;
      }

      .cls-11 {
        fill: #4b2004;
      }

      .cls-4 {
        fill: #ce808b;
      }

      .cls-12 {
        fill: #999;
      }

      .cls-13 {
        fill: #ccc;
      }

      .cls-14 {
        fill: #b3b3b3;
      }

      .cls-15 {
        fill: gray;
      }

      .cls-16 {
        fill: #1a4487;
      }
    </style>
  </defs>
  <g class="cls-10">
    <g id="Layer_2">
      <g id="Layer_1-2" data-name="Layer_1">
        <g>
          <path class="cls-6" d="M714.73,386.58l-3.5,93.73-8.19,218.16-3.07,82.79-10.5,280.43,9.43,174.26H47.31l29.03-182.93c8.3-91.74,16.59-172.11,24.51-242.35.43-3.61.81-7.22,1.24-10.77,36.95-322.56,67.28-425.34,67.28-425.34l108.7-42.12,8.78-3.45,20.58-7.97,15.35-5.93,4.04-1.62,15.73-1.72,5.49-.65,70.78-7.97,49.45-5.55,3.56,1.29,20.31,7.33,8.46,3.02,17.24,6.25,5.71,2.05,191.18,69.06Z"/>
          <path class="cls-3" d="M711.22,480.31l-8.19,218.16-3.07,82.79-10.5,280.43,9.43,174.26h-129.55c-.81-65.39-.97-169.31,2.15-317.22,5.98-282.21,47.89-441.44,47.89-441.44l91.84,3.02Z"/>
          <polygon class="cls-2" points="523.52 362.14 490.38 367.11 514.76 407.33 342.46 641.64 353.2 602.65 492.13 306.19 500.58 309.25 517.84 315.49 523.52 317.54 523.52 362.14"/>
          <polygon class="cls-2" points="386.05 548.92 365.84 581.43 260.91 432.12 293.25 387.16 253.65 380.52 278.06 332.43 286.86 329.02 307.46 321.02 322.78 315.08 326.83 313.51 342.54 311.75 348.04 311.13 386.05 548.92"/>
          <path class="cls-14" d="M249.37,647.85c-.63,0-1.26-.14-1.87-.43-40.95-19.94-25.07-137.76-24.37-142.76.32-2.34,2.49-3.96,4.82-3.64,2.34.32,3.97,2.48,3.64,4.82-4.5,32.39-9.74,119.59,19.65,133.91,2.12,1.03,3,3.59,1.97,5.71-.74,1.52-2.26,2.4-3.84,2.4Z"/>
          <path class="cls-14" d="M276.09,647.85c-.98,0-1.97-.34-2.77-1.03-1.79-1.53-2-4.23-.47-6.02,22.06-25.78,20.8-134.4,20.78-135.5-.03-2.36,1.85-4.3,4.21-4.33.02,0,.04,0,.06,0,2.33,0,4.24,1.87,4.27,4.21.06,4.6,1.3,112.97-22.83,141.17-.84.99-2.04,1.49-3.25,1.49Z"/>
          <path class="cls-13" d="M293.96,513.74c-.08-.54-8.08-54.1-30.67-51.94-22.84,2.17-30.63,49.22-30.7,49.69l-3.37-.54c.33-2.05,8.29-50.13,33.75-52.55,25.73-2.46,34.03,52.51,34.37,54.85l-3.38.49Z"/>
          <path class="cls-15" d="M475.15,511.53c-8.36,13.51-8.31,31.53,2.93,42.11,15.45,14.54,44,9.44,56.71-15.53,11.85-23.29-.94-43.91-20.85-46.51-14.89-1.95-30.75,6.95-38.79,19.93Z"/>
          <path class="cls-14" d="M472.58,505.3c-8.36,13.51-8.31,31.53,2.93,42.11,15.45,14.54,44,9.44,56.71-15.53,11.85-23.29-.94-43.91-20.85-46.51-14.89-1.95-30.75,6.95-38.79,19.93Z"/>
          <path class="cls-2" d="M703.05,698.47l-3.09,82.81c-17.46,9.96-33.89,10.68-33.89,10.68h-287.06l-8.37-47.56,332.41-45.93Z"/>
          <polygon class="cls-2" points="348.81 628.37 316.24 1235.98 303.92 1235.98 342.46 628.37 348.81 628.37"/>
          <path class="cls-2" d="M392.35,809.35l-.92,15.07-290.58-13.75c.41-3.6.82-7.19,1.23-10.74h284.22l6.05,9.43Z"/>
          <polygon class="cls-6" points="383.42 540.28 371.09 576.73 275.98 423.25 303.73 384.5 268.07 376.35 286.86 329.02 307.46 321.02 322.78 315.08 326.83 313.51 342.54 311.75 383.42 540.28"/>
          <polygon class="cls-2" points="391.42 539.15 370.64 500.97 335.06 641.64 391.42 539.15"/>
          <polygon class="cls-6" points="517.84 354.54 479.11 362.39 503.02 404.77 342.46 628.37 367.23 548.92 379.58 494.74 418.85 303.15 468.26 297.59 471.83 298.87 500.58 309.25 517.84 315.49 517.84 354.54"/>
          <path class="cls-2" d="M707.15,386.69s.05-7.83-32.85,0c-32.91,7.83-76.31,62.4-104.57,168.78l-19.72,50.87h-237.43l-3.42,35.3h280.99l117.01-254.95Z"/>
          <polygon class="cls-5" points="471.83 298.87 409.2 448.6 367.23 548.92 348.81 452.07 322.78 315.08 326.83 313.51 468.26 297.59 471.83 298.87"/>
          <polygon class="cls-16" points="409.2 448.6 367.23 548.92 348.81 452.07 361.06 402.07 363.04 393.96 374.06 371.31 387.72 371.31 399.94 393.96 400.47 397.1 409.2 448.6"/>
          <polygon class="cls-16" points="400.47 397.1 361.06 402.07 363.04 393.96 374.06 371.31 387.72 371.31 399.94 393.96 400.47 397.1"/>
          <polygon class="cls-16" points="353.2 364.35 363.03 393.95 399.94 393.95 413.63 361.5 379.57 330.84 353.2 364.35"/>
          <polygon class="cls-7" points="445.56 168.38 445.31 203.74 445.1 232.18 444.49 318.85 406.67 337.5 353.51 324.4 354.57 300.18 357.3 237.03 414.75 192.34 445.56 168.38"/>
          <path class="cls-4" d="M445.31,180.65l-.21,51.53c-11.87,25.3-37.84,61.48-90.53,68l2.73-63.15,57.45-44.69,30.56-11.69Z"/>
          <path class="cls-11" d="M283.29,38s-33.29,40.12-14.07,118.22l9.19-47.37,35.46-62.51-30.58-8.34Z"/>
          <path class="cls-7" d="M276.24,151.07s-4.76-11.6-10.4-10.93c-9.21,1.09-6.16,35.52,14.76,44.68l-4.36-33.75Z"/>
          <path class="cls-4" d="M276.24,151.07s-4.76-11.6-10.4-10.93c-9.21,1.09-6.16,35.52,14.76,44.68l-4.36-33.75Z"/>
          <path class="cls-7" d="M368.32,272.08c-49.72,3.67-94.09-48.19-99.09-115.87-2.22-30.03,3.67-58.11,15.27-80.39,14.54-27.93,38.04-46.74,65.7-48.79,18.14-1.35,35.56,4.7,50.61,16.21,26.24,20.04,45.3,56.66,48.48,99.64,5.02,67.66-31.24,125.5-80.97,129.19Z"/>
          <path class="cls-4" d="M400.81,43.26c-1.09.92-2.26,1.85-3.5,2.8-47.01,36.02-87.24,36.13-112.81,29.77,14.54-27.93,38.04-46.74,65.7-48.79,18.14-1.35,35.56,4.7,50.61,16.21Z"/>
          <path class="cls-11" d="M295.82,65.6c6.23,1.94,12.79,2.97,19.25,3.13,18.77.46,38.66-3.25,55.77-11.02,6.6-3,13.05-6.66,20.18-7.92,6.77-1.2,9.94.62,9.93,7.06,0,4.86-.24,9.72-.29,14.58-.1,9.05-.04,21.47,8.75,26.83,14.68,8.94,26.59,25.06,28.88,41.07,2.29,16.02.99,26.69.99,26.69l14.09.97,12.14-22.38s-4.74-59.8.27-79.28C470.79,45.84,426.77,2.59,366.33.12c-11.4-.47-22.17.48-33.34,2.12-16.02,2.34-31.29,9-47.12,12.42-7.22,1.56-15.37,3.81-18.65,10.43-1.26,2.54-1.6,5.44-1.69,8.28-.09,2.97.07,5.97.91,8.82,3.54,12,18.33,19.98,29.38,23.41Z"/>
          <path class="cls-7" d="M472.94,174.81c-11.9,15.63-21.46,10.82-26.52,5.85-2.55-2.5-3.96-5.03-3.96-5.03l.94-18.13.74-14.04s7.58-19.44,21.8-21.59c14.2-2.17,24.88,29.45,7,52.95Z"/>
          <polygon class="cls-1" points="354.67 297.58 379.57 330.84 352.13 381.17 326.83 313.51 354.67 297.58"/>
          <polygon class="cls-1" points="444.73 285.77 379.57 330.84 412.96 380.52 468.27 297.58 444.73 285.77"/>
          <path class="cls-6" d="M394.68,674.63l-2.02,117.33-.31,17.39c-79.96-.68-255.51-4.66-346.91-6.82-29.89-.7-51.35-29.02-43.99-57.99,11.12-43.68,28.94-110.83,53.65-195.09,45.35-154.69,114.21-173.11,114.21-173.11l-21.4,100.56-27.77,180.5-1.69,11.02,20.41.46,29.24.65,226.57,5.09Z"/>
          <path class="cls-2" d="M394.68,674.63l-2.02,117.33h-113.97l2.84-31.33h-30.17l2.84-30.17c-68.33,0-86.09-60.93-86.09-60.93l226.57,5.09Z"/>
          <path class="cls-2" d="M120.14,657.41c-7.46,1.91-14.71,4.8-21.49,8.44-16.47,8.83-30.35,21.9-42.21,36.37-8.81,10.76-16.74,22.63-20.31,36.08,17.18-26.51,42.59-47.61,71.79-59.63-17.65,13.63-21.42,38.3-23.86,60.47,6.61-22.24,19.73-42.5,37.32-57.63-.79,13.6,1.28,27.36,6.01,40.14-.14-12.35.24-24.91,3.83-36.73,1.72-5.65,4.25-11.15,7.64-16.02,0,0,4.59-83.05,7.16-113.8,2.56-30.75,7.76-110.85,7.76-110.85-19.64,71.23-33.64,213.17-33.64,213.17Z"/>
          <path class="cls-7" d="M295.65,637.78l-11.12,82.95c-7.67-.14-14.84-.56-21.57-1.26-78.18-7.93-94.85-49.93-94.85-49.93l-8.32-.19-41.34-.92s19.63-41.32,58.45-47.49c22.55-3.57,58.91,2.66,85.46,8.54,19.22,4.25,33.29,8.3,33.29,8.3Z"/>
          <path class="cls-4" d="M295.65,637.78l-11.12,82.95c-7.67-.14-14.84-.56-21.57-1.26l-.6-89.99c19.22,4.25,33.29,8.3,33.29,8.3Z"/>
          <polygon class="cls-5" points="321.43 629.11 307.92 751.89 288.1 751.55 268.07 751.21 278.15 628.37 292.65 628.61 321.43 629.11"/>
          <polygon class="cls-16" points="321.43 629.11 307.92 751.89 288.1 751.55 292.65 628.61 321.43 629.11"/>
          <path class="cls-6" d="M731.73,725.72c-8.49,29.31-33.98,50.49-64.33,53.53l-374.16,1.66,13.92-162.55,248.09.15h8.27c4.63-14.33,9.39-30,14.4-46.19,24.99-80.92,55.69-175.45,102.68-187.83,79.92-21.06,124.27,88.79,51.13,341.22Z"/>
          <path class="cls-2" d="M659.41,649.47c-14.2-4.45-30.14-12.31-40.41-23.37,13.43-3.54,5.72-23.62-4.06-26.86,9.74,3.23,20.15,4.45,30.37,3.58,2.82-.24,5.72-.67,8.11-2.18,6.33-3.98,6.25-13.46,3.2-20.29-3.68-8.26-10.63-15-18.99-18.45,5.6-.04,11.59-1.34,15.39-5.46,3.79-4.12,4.09-11.65-.56-14.79-2.3-1.55-5.22-1.76-7.99-1.89-7.93-.38-15.87-.57-23.81-.57-3.12,0-6.38.06-9.14,1.5-2.68,1.4-4.57,3.91-6.37,6.35-7.57,10.27-15.21,20.65-20.29,32.35-.01.03-.03.06-.04.09-2.07-2.56-4.34-4.98-6.89-7.18-5,16.19-9.77,31.86-14.4,46.19h-8.27c.05,8.73,1.33,17.2,2.63,26.17,2.03,13.92,3.31,26.99,8.39,40.33,4.9,12.88,11.87,24.97,20.69,35.56-5.82-15.87-11.7-31.91-13.9-48.68-2.2-16.76-.48-34.57,8.11-49.14,4.13,24.55,19.15,47.08,40.23,60.33-15.68-16.65-25.3-38.88-26.7-61.7,17.08,16.94,40.65,27.18,64.7,28.08Z"/>
          <path class="cls-7" d="M659.36,573.87c-1.33-5.86-5.49-10.73-10.28-14.35-10.69-8.07-24.06-10.88-37.39-12.19,6.91.29,13.5,1.19,20.31,2.39,6.81,1.2,14.45,2.53,19.97-1.65,5.52-4.18,7.35-13.46,2.13-17.99-2.02-1.75-4.69-2.54-7.3-3.15-23.42-5.47-48.9-3.06-69.25,9.75-5.84,3.68-38.17,31.86-48.95,40.29-16.19,12.67-31.11,27.09-45.34,41.82,26.51.02,53.02.03,79.53.05,0,0,20.12-4.91,23.99-6.41,0,0,22.31,11.86,33.05,7.39,3.46-2.54,5.52-6.84,5.44-11.5-.09-5.19-2.66-10.12-6.24-13.88-6.02-6.32-13.49-7.77-20.59-11.77,13.3-6.35,32.41,8.69,46.29,8.83,2.99.03,6.06-.41,8.65-1.9,5.2-3.01,7.31-9.88,5.98-15.74Z"/>
          <path class="cls-4" d="M461.71,144.03c-4.44-.43-8.52,2.79-11.55,5.65-1.93,1.82-2.71,2.6-2.82,5.18-.12,2.69-.16,5.39-.24,8.09,2.23.54,4.39-2.47,6.48-1.53.96.43,1.4,1.54,1.68,2.56.48,1.73.75,3.73-.26,5.22-.35.51-.83.92-1.35,1.26-1.74,1.14-3.91,1.41-5.9.88-.33,1.91.84,4.12,2.52,5.13,8.19,4.9,15.33-11.96,16.36-17.64.74-4.12,1.23-14.2-4.92-14.8Z"/>
          <path class="cls-12" d="M494.01,513.72c-2.7,4.36-2.68,10.19.95,13.6,4.99,4.7,14.21,3.05,18.32-5.02,3.83-7.52-.3-14.18-6.74-15.02-4.81-.63-9.93,2.25-12.53,6.44Z"/>
          <g>
            <g>
              <path class="cls-8" d="M354.57,294.91l.6-13.77c-3.87,1.95-7.75,4.08-11.65,6.41-52.25,31.24-69.88,86.46-80.24,136.35-.77,3.69,1.61,7.31,5.3,8.08,3.69.76,7.31-1.61,8.08-5.3,9.76-46.99,26.16-98.87,73.87-127.4,1.32-.79,2.63-1.55,3.95-2.29l.09-2.08Z"/>
              <path class="cls-8" d="M462.8,281.76c-5.72-3.96-11.75-7.15-18.02-9.61l-.11,14.86c3.57,1.7,7.02,3.68,10.35,5.98,21.13,14.63,36.52,40.88,44.48,75.9,8.68,38.17,8.23,86.17-1.3,138.81-.67,3.71,1.79,7.27,5.51,7.94.41.07.82.11,1.23.11,3.24,0,6.12-2.31,6.72-5.62,19.61-108.25,1.35-193.63-48.85-228.38Z"/>
            </g>
            <path class="cls-8" d="M298.06,518.96s-.07,0-.11,0c-3.77-.06-6.78-3.16-6.73-6.94.36-23.5-3.74-64.71-16.23-75.26-2.37-2.01-4.78-2.65-7.81-2.09-23.17,4.3-32.51,57.13-33.96,75.3-.3,3.76-3.58,6.57-7.35,6.27-3.76-.3-6.57-3.59-6.27-7.35.66-8.24,7.5-80.68,45.09-87.65,7.03-1.3,13.64.46,19.12,5.09,21.5,18.16,21.18,79.03,21.08,85.91-.06,3.74-3.11,6.72-6.83,6.72Z"/>
          </g>
          <path class="cls-13" d="M492.31,510.3c-2.7,4.36-2.68,10.19.95,13.6,4.99,4.7,14.21,3.05,18.32-5.02,3.83-7.52-.31-14.18-6.74-15.02-4.81-.63-9.94,2.25-12.53,6.44Z"/>
          <path class="cls-6" d="M325.74,208.9l51.63-3.99s-21.65,30.75-51.63,3.99Z"/>
          <path class="cls-9" d="M289.39,139.48c1.12-2.65,2-5.42,3.54-7.85,3.18-5.03,10.54-7.64,16.12-5.28,4.7,1.99,7.27,7.01,9.22,11.72"/>
          <path class="cls-9" d="M366.58,136.05c1.12-2.65,2-5.42,3.54-7.85,3.18-5.03,10.54-7.64,16.12-5.28,4.7,1.99,7.27,7.01,9.22,11.72"/>
          <path class="cls-9" d="M335.74,125.78s-6.66,44.41,2.73,49.53c9.39,5.12,20.79-1.71,20.79-1.71"/>
          <path class="cls-11" d="M317.66,104.95c1.41,2.01.11,4.93-1.89,6.37-3.86,2.78-9.16,1.89-13.78.76-5.07-1.24-8.91-1.58-13.86.01-7.09,2.28-6.35-3.95-1.48-6.9,3.13-1.89,7.16-2.64,10.74-3.14,5.29-.73,10.67-.14,15.92.82,1.63.3,3.41.72,4.35,2.08Z"/>
          <path class="cls-11" d="M365.18,101.52c-1.41,2.01-.11,4.93,1.89,6.37,3.86,2.78,9.16,1.89,13.78.76,5.07-1.24,8.91-1.58,13.86.01,7.09,2.28,6.35-3.95,1.48-6.9-3.13-1.89-7.16-2.64-10.74-3.14-5.29-.73-10.67-.14-15.92.82-1.62.3-3.4.72-4.35,2.08Z"/>
          <path class="cls-4" d="M168.1,669.54l-8.32-.19c-2.2-5.94-6.01-9.21-6.01-9.21,11.62,2.99,14.33,9.39,14.33,9.39Z"/>
          <rect class="cls-2" x="106.13" y="952.45" width="137.96" height="13.95"/>
          <rect class="cls-2" x="413.04" y="952.45" width="137.96" height="13.95"/>
        </g>
      </g>
    </g>
  </g>
</svg>