<?xml version="1.0" encoding="UTF-8"?>
<svg id="Layer_2" xmlns="http://www.w3.org/2000/svg" viewBox="0 0 70.59 70.57">
  <defs>
    <style>
      .cls-1 {
        fill: #5689d6;
      }
    </style>
  </defs>
  <g id="Layer_1-2" data-name="Layer_1">
    <g>
      <path class="cls-1" d="M57.15,40.52c-2.07-.24-3.86,0-5.61.59-9.22,3.08-12.06,14.58-5.33,21.58.4.42.74.84.35,1.4-.4.57-.92.39-1.53.05,0,.76,0,1.45,0,2.14,0,2.72-1.55,4.28-4.25,4.28-12.2,0-24.39,0-36.59,0-2.66,0-4.2-1.56-4.21-4.24C0,45.63,0,24.94,0,4.25,0,1.53,1.54,0,4.27,0c12.17,0,24.34,0,36.52,0,2.71,0,4.26,1.55,4.26,4.27,0,12.59,0,25.18,0,37.77,0,.28,0,.57,0,1.02,3.56-3.34,7.64-4.74,12.47-4.3-.2-.31-.36-.56-.51-.82-.28-.47-.24-.91.21-1.22.45-.3.91-.22,1.22.23.6.86,1.18,1.73,1.74,2.62.31.49.18.94-.3,1.27-.81.55-1.62,1.09-2.44,1.62-.5.33-.99.35-1.34-.19-.35-.55-.09-.97.4-1.29.16-.11.31-.22.66-.46ZM1.76,35.25c0,10.37,0,20.74,0,31.1,0,1.65.78,2.45,2.4,2.45,12.24,0,24.49,0,36.73,0,1.58,0,2.38-.8,2.4-2.38.01-1.29.03-2.59-.01-3.88-.01-.41-.13-.86-.34-1.22-2.92-5.17-2.92-10.33,0-15.51.2-.36.35-.81.35-1.22.02-13.42.02-26.83.01-40.25,0-1.83-.75-2.58-2.57-2.58-12.12,0-24.24,0-36.36,0-1.88,0-2.6.72-2.6,2.61,0,10.29,0,20.59,0,30.88Z"/>
      <path class="cls-1" d="M55.65,61.98c-4.64,0-8.41-3.76-8.42-8.42,0-4.65,3.75-8.44,8.39-8.46,4.64-.02,8.48,3.81,8.48,8.46,0,4.62-3.8,8.41-8.44,8.41ZM55.69,60.22c3.7-.02,6.69-3.05,6.65-6.74-.04-3.65-3.07-6.63-6.72-6.62-3.69.02-6.67,3.05-6.63,6.75.04,3.68,3.02,6.63,6.7,6.6Z"/>
      <path class="cls-1" d="M53.88,68.48c.16.26.33.49.46.75.23.45.17.87-.25,1.16-.43.3-.87.23-1.16-.19-.63-.89-1.24-1.81-1.82-2.74-.28-.44-.14-.87.27-1.15.86-.6,1.73-1.18,2.62-1.74.46-.3.91-.22,1.21.24.3.46.17.88-.26,1.21-.21.16-.42.31-.77.55,2.06.24,3.91,0,5.71-.62,9.11-3.15,11.88-14.55,5.23-21.53-.15-.16-.39-.31-.41-.49-.04-.33-.07-.8.12-.98.22-.2.68-.19,1.03-.19.15,0,.31.22.44.36,4.02,4.37,5.33,9.44,3.46,15.08-1.86,5.6-5.87,8.95-11.7,10-1.35.24-2.75.19-4.18.27Z"/>
      <path class="cls-1" d="M18.63,14.2c0-1.77,0-3.44,0-5.12,0-1.24.21-1.46,1.43-1.46,1.66,0,3.32,0,4.97,0,1.14,0,1.34.21,1.35,1.38,0,1.7,0,3.4,0,5.2,1.03,0,2,0,2.96,0,.83,0,1.66,0,2.49,0,.86,0,1.13.28,1.13,1.15,0,1.8,0,3.61,0,5.41,0,.91-.27,1.18-1.17,1.19-1.54,0-3.07,0-4.61,0-.24,0-.48,0-.8,0,0,1.58,0,3.08,0,4.59q0,2-1.98,2c-1.51,0-3.02,0-4.54,0-.94,0-1.23-.28-1.23-1.22,0-1.75,0-3.51,0-5.36-.5,0-.95,0-1.41,0-1.37,0-2.73,0-4.1,0-.69,0-1.06-.34-1.07-1.02-.01-1.9-.02-3.81,0-5.71,0-.74.34-1.03,1.11-1.03,1.78,0,3.55,0,5.46,0ZM31.17,15.95c-1.81,0-3.53,0-5.26,0-1.02,0-1.28-.27-1.29-1.31,0-1.32,0-2.63,0-3.95,0-.43,0-.86,0-1.28h-4.24c0,1.7,0,3.35,0,5,0,1.4-.14,1.53-1.56,1.53-1.65,0-3.3,0-4.97,0v4.25c1.81,0,3.56,0,5.32,0,.96,0,1.2.24,1.2,1.22,0,.97,0,1.95,0,2.93,0,.8,0,1.59,0,2.39h4.24v-.76c0-1.44,0-2.88,0-4.31,0-1.25.21-1.46,1.42-1.46.51,0,1.02,0,1.54,0h3.59v-4.25Z"/>
      <path class="cls-1" d="M10.7,46.53c.61,0,1.22-.01,1.83,0,1.43.03,2.4.96,2.43,2.37.03,1.29.03,2.58,0,3.88-.03,1.37-.99,2.34-2.37,2.38-1.29.04-2.58.04-3.87,0-1.36-.04-2.33-1.01-2.38-2.38-.04-1.29-.05-2.59,0-3.88.05-1.42,1.04-2.33,2.46-2.36.63-.01,1.27,0,1.9,0ZM13.21,50.83c0-.59,0-1.17,0-1.76,0-.55-.26-.8-.81-.79-1.17.01-2.34.01-3.51,0-.56,0-.8.28-.81.81,0,1.17,0,2.34,0,3.51,0,.53.28.81.82.81,1.17,0,2.34,0,3.51,0,.54,0,.8-.27.79-.82,0-.59,0-1.17,0-1.76Z"/>
      <path class="cls-1" d="M10.69,65.9c-.63,0-1.27.01-1.9,0-1.39-.03-2.38-.92-2.44-2.3-.06-1.34-.06-2.68,0-4.02.06-1.34,1.03-2.26,2.38-2.3,1.29-.04,2.58-.05,3.87,0,1.41.05,2.34,1.03,2.36,2.46.02,1.24.02,2.49,0,3.73-.03,1.47-.98,2.4-2.44,2.44-.61.01-1.22,0-1.83,0ZM13.21,61.61c0-.59,0-1.17,0-1.76.01-.54-.23-.84-.78-.84-1.19,0-2.39,0-3.58,0-.5,0-.76.29-.76.79,0,1.2,0,2.39,0,3.59,0,.5.27.75.78.75,1.19,0,2.39,0,3.58,0,.52,0,.75-.27.75-.77,0-.59,0-1.17,0-1.76Z"/>
      <path class="cls-1" d="M27.85,39.21c3.15,0,6.29,0,9.44,0,.24,0,.54-.06.72.05.26.16.59.45.61.7.02.29-.21.67-.46.87-.19.16-.55.13-.84.13-6.32,0-12.63,0-18.95,0-.17,0-.34.01-.51,0-.53-.07-.88-.35-.87-.9.02-.54.36-.83.91-.84.34,0,.68,0,1.02,0,2.98,0,5.95,0,8.93,0Z"/>
      <path class="cls-1" d="M27.77,51.7c-3.12,0-6.24,0-9.37,0-.24,0-.54.07-.72-.04-.28-.18-.63-.47-.66-.74-.03-.27.26-.63.5-.85.14-.13.46-.11.7-.11,6.39,0,12.78,0,19.17,0,.15,0,.3-.01.44.01.53.08.86.37.82.93-.03.52-.35.79-.86.8-.8.02-1.61.01-2.41.01-2.54,0-5.07,0-7.61,0Z"/>
      <path class="cls-1" d="M27.85,60.73c3.15,0,6.29,0,9.44,0,.24,0,.54-.07.72.05.26.16.59.45.61.7.02.29-.22.67-.46.87-.19.16-.55.13-.84.13-6.32,0-12.63,0-18.95,0-.22,0-.51.07-.64-.05-.29-.24-.65-.54-.71-.87-.08-.48.29-.8.81-.83.41-.02.83-.01,1.24-.01,2.93,0,5.85,0,8.78,0Z"/>
      <path class="cls-1" d="M10.09,40.35c.75-.78,1.37-1.46,2.02-2.12.55-.55,1.08-.62,1.45-.17.43.52.23.98-.2,1.41-.84.82-1.65,1.66-2.49,2.48-.57.56-.99.56-1.57,0-.51-.49-1.01-.99-1.5-1.5-.4-.42-.44-.89-.01-1.29.4-.37.85-.32,1.24.06.33.32.63.68,1.05,1.14Z"/>
      <path class="cls-1" d="M56.52,50.81s0,.1,0,.15c-.23,1.54.17,2.8,1.49,3.73.5.35.64.88.2,1.39-.36.42-.87.36-1.4-.14-.02-.02-.03-.03-.05-.05q-1.99-1.91-1.99-4.71c0-.8,0-1.61,0-2.41,0-.58.25-1.03.88-1.03.63,0,.88.42.87,1.03,0,.68,0,1.37,0,2.05Z"/>
    </g>
  </g>
</svg>