<?xml version="1.0" encoding="UTF-8"?>
<svg xmlns="http://www.w3.org/2000/svg" viewBox="0 0 326.91 256.93">
  <defs>
    <style>
      .cls-1 {
        fill: #fdaec2;
      }

      .cls-2 {
        fill: #707a8f;
      }

      .cls-3 {
        fill: #f2e2bd;
      }

      .cls-4 {
        fill: #f6ced5;
      }

      .cls-5, .cls-6 {
        fill: #fff;
      }

      .cls-7 {
        fill: #3a40bd;
      }

      .cls-8 {
        fill: #02024a;
      }

      .cls-9 {
        fill: #fd88a1;
      }

      .cls-10 {
        fill: #e14d49;
      }

      .cls-11 {
        fill: #b03326;
      }

      .cls-12 {
        fill: none;
        stroke: #fd342e;
        stroke-linecap: round;
        stroke-linejoin: round;
        stroke-width: 2.04px;
      }

      .cls-13 {
        fill: #fb6c69;
      }

      .cls-14 {
        isolation: isolate;
      }

      .cls-6 {
        opacity: .52;
      }

      .cls-15 {
        fill: #321f59;
      }

      .cls-16 {
        fill: #fc6987;
      }

      .cls-17 {
        fill: #c53b2a;
      }

      .cls-18 {
        fill: #fdb5b3;
      }

      .cls-19 {
        mix-blend-mode: multiply;
        opacity: .3;
      }

      .cls-19, .cls-20 {
        fill: #606980;
      }

      .cls-21 {
        fill: #575dd9;
      }

      .cls-22 {
        fill: #1d0a3d;
      }

      .cls-23 {
        fill: #d6c394;
      }

      .cls-24 {
        fill: #fd342e;
      }

      .cls-25 {
        fill: #f55175;
      }

      .cls-26 {
        fill: #2b1a4a;
      }

      .cls-27 {
        fill: #454bc7;
      }

      .cls-28 {
        fill: #8d9cbd;
      }
    </style>
  </defs>
  <g class="cls-14">
    <g id="Layer_2">
      <g id="Layer_1-2" data-name="Layer_1">
        <g>
          <ellipse class="cls-19" cx="163.45" cy="231.46" rx="163.45" ry="25.47"/>
          <path class="cls-12" d="M226.83,157.21c-16.49,59.16-51.44-77.59-118.09-88.58-45.24-7.46-82.29,37.64-59.71,100.44"/>
          <g>
            <path class="cls-28" d="M81.08,237.81c34.44,2.78,51.61-6.03,51.48-9.57-.05-1.41-.85-2.67-1.7-3.79-6.39-8.46-16.77-13.27-27.27-14.75-10.5-1.49-21.2.02-31.57,2.23-6.09,1.3-12.13,2.83-18.1,4.6-10.93,4.32-7.28,18.5,27.16,21.28Z"/>
            <path class="cls-2" d="M129.9,223.25c-.83.99-1.82,1.92-2.95,2.74-5.11,3.72-11.47,5.67-17.5,7.29-9.39,2.52-18.91,2.31-28.46.73-4.51-.75-8.92-1.96-13.4-2.84-3.6-.71-7.27-1.39-10.64-2.91-2.54-1.15-5.48-3.08-5.96-6.05-.24-1.5.08-3.16.81-4.59-8.09,5.23-2.64,17.61,29.29,20.19,34.44,2.78,51.61-6.03,51.48-9.57-.05-1.41-.85-2.67-1.7-3.79-.31-.41-.63-.8-.96-1.19Z"/>
            <path class="cls-2" d="M110.51,222.63c-.72.38-1.44.74-2.23,1.01-1.71.55-3.5.89-5.28,1.1-3.37.42-6.77.42-10.15.44-6.9.06-13.35.6-19.84-1.25,1.8-14.05,3.87-28.19,3.72-42.32,0-1.15-.03-2.31-.06-3.46-.15-7.15-.53-14.28-.52-21.44,0-2.74.07-5.46.19-8.18v-.12h31.48c.02.48.03.98.04,1.46.33,10.6.2,21.21.26,31.81,0,3.11.04,6.22.1,9.32.2,10.46.69,21.17,2.3,31.63Z"/>
            <path class="cls-20" d="M108.11,181.68c-2.43.27-4.89.31-7.33.29-6.58-.06-13.21-.45-19.53-2.24-1.55-.44-3.08-.97-4.58-1.59-.15-7.15-.53-14.28-.52-21.44,0-2.74.07-5.46.19-8.18.1-.05.2-.09.31-.12,6.67-2.39,13.97-3.02,20.93-1.67,2.13.41,4.21.99,6.26,1.67,1.07.36,2.15.73,3.2,1.14.27.11.55.21.82.32.33,10.6.2,21.21.26,31.81Z"/>
            <path class="cls-10" d="M174.6,144.88c-12.79-2.56-49.69-11.7-49.69-11.7l-8.85-24.24c-2.37-9.85-4.73-19.68-7.1-29.53-2.43-10.12-4.99-20.49-12.09-29.33-2.19-2.71-4.98-5.36-8.92-6.54-3.38-1-7.16-.8-10.77-.54-15.18,1.12-30.24,3.16-44.99,6.08-5.1,1.02-10.47,2.28-13.94,5.25-4.89,4.19-4.51,10.4-3.69,15.92,2.4,16.05,15.13,63.59,19.14,71.09,4.32,8.04,11.52,15.54,21.78,19.66,3.96,1.59,8.27,2.64,12.56,3.64,13.51,3.16,27.19,5.98,40.98,8.42,2.55.45,5.14.9,7.75.81,2.31-.09,4.55-.58,6.72-1.21,1.14-.33,2.26-.69,3.38-1.07,14.43-4.76,28.87-9.51,43.29-14.27,3.95-1.31,8.28-2.57,10.8-5.18.45-.46,1.79-1.45,1.98-2.64v-.03c.19-1.45-1.35-3.19-8.36-4.59Z"/>
            <path class="cls-17" d="M106.56,162.54c-7.75-2.25-15.59-4.16-23.56-5.43-7-1.11-14.27-1.08-21.09-3.14-5.49-1.66-10.56-4.64-14.26-9.08-4.21-5.06-5.92-10.81-6.5-17.27-.32-3.59-.38-7.21-.9-10.78-.61-4.15-1.32-8.29-2.05-12.41-1.43-8.14-3.13-16.24-5.64-24.13-2.71-8.52-6.41-21.16-15.7-24.55-3.39,4.1-3.03,9.57-2.29,14.49,2.41,16.05,15.13,63.6,19.15,71.08,4.32,8.05,11.52,15.55,21.78,19.66,3.96,1.59,8.26,2.64,12.56,3.64,13.52,3.16,27.2,5.97,40.98,8.42,2.55.45,5.14.89,7.75.8,3.3-.11,6.42-1.07,9.45-2.06-5.16-5.51-12.57-7.19-19.67-9.25Z"/>
            <path class="cls-11" d="M182.96,149.47v.03c-.19,1.18-1.53,2.17-1.98,2.64-2.52,2.61-6.85,3.87-10.8,5.18-14.43,4.76-28.87,9.51-43.29,14.27-1.12.37-2.24.73-3.38,1.07-1.18-1.31-2.49-2.51-3.91-3.57,4.04-2.11,7.74-5,11.67-7.24,7.01-3.99,14.26-7.55,21.88-10.13,8.15-2.76,16.88-4.89,25.45-5.71,3.33,1.13,4.35,2.37,4.36,3.47Z"/>
            <path class="cls-13" d="M101.18,113.11c-1.43.43-3.14,1.18-3.24,2.67-.11,1.56,1.62,2.52,3.07,3.09,10.45,4.07,20.94,8.15,31.85,10.71,4.67,1.09,9.48,1.9,14.24,1.33,4.76-.57,9.5-2.68,12.39-6.51.62-.83,1.15-2,.55-2.84-.29-.4-.77-.61-1.22-.8-12.87-5.37-26.47-9-40.31-10.77-3.57-.46-7.21-.79-10.74-.1-3.53.69-6.98,2.52-8.88,5.58"/>
            <path class="cls-17" d="M151.77,125.09c-3.43,1.24-6.74,1.93-10.4,1.44-3.83-.52-7.61-1.93-11.26-3.15-3.95-1.32-7.92-2.87-11.99-3.77-2.99-.66-6.08-.87-9.12-1.24-3.61-.43-7.53-.85-11.03-2.14.22,1.29,1.73,2.12,3.04,2.63,10.45,4.07,20.94,8.15,31.85,10.71,4.67,1.09,9.48,1.9,14.24,1.33,4.76-.57,9.5-2.68,12.39-6.51.47-.63.89-1.46.8-2.19-2.86.94-5.71,1.88-8.53,2.89Z"/>
            <path class="cls-9" d="M151.49,158.84c-3.14,2.44-3.34,7.06-3.13,11.03.75,14.14,3.17,28.12,6,42.01.47,2.33.95,4.66,1.45,6.98.5,2.39,1.01,4.77,1.52,7.15.21.97.43,1.96.79,2.87,2.17.25,4.34.53,6.52.68.46.03.92.04,1.38.07.46-3.19.93-6.39,1.38-9.58.37-2.53.67-5.05,1.09-7.56,1.48-8.88,4.03-45.4,4.88-51.91.85-6.51.9-17.3-11.3-24.08-12.2-6.78-10.22,21.25-10.22,21.25"/>
            <path class="cls-26" d="M113.14,146.42c11.68,3.8,23.49,7.2,35.4,10.17,4.73,1.18,9.49,2.3,14.34,2.72,2.22.19,4.64.19,6.42-1.14,3.32-2.47,2.44-7.59,1.21-11.54-.78-2.52-1.62-5.14-3.46-7.04-1.65-1.71-3.92-2.63-6.13-3.52-19.18-7.69-37.85-20.48-58.52-20.33-4.47.03-9.7,20.73-9.7,20.73l20.43,9.95"/>
            <path class="cls-9" d="M111.65,110.98c-.57.49-1.3.77-2.01,1.03-3.94,1.36-8.11,2.02-12.28,1.93l-21.81-55.58c1.79-.88,3.95-.72,5.81,0,1.87.71,3.49,1.9,5.09,3.09,2.39,1.76,4.82,3.57,6.61,5.93,1.55,2.02,2.58,4.37,3.63,6.69.74,1.65,1.5,3.3,2.27,4.94.85,1.84,1.72,3.67,2.61,5.47,3.01,6.16,6.18,12.23,9.52,18.22.73,1.32,1.5,2.65,1.75,4.14.26,1.48-.06,3.16-1.2,4.14Z"/>
            <path class="cls-9" d="M161.07,122.94c-2.41-3.55-6.17-6.01-10.14-7.64-3.97-1.62-8.21-2.49-12.39-3.46-5.72-1.32-11.39-2.86-16.99-4.6-1.57-.49-6.79-2.13-8.33-2.02-1.54.11-3.58-.27-6.14,2.35-1.61,1.66-1.8,3.71-1.14,5.57.69.6,1.41,1.16,2.2,1.64,1.91,1.15,4.07,1.79,6.22,2.37,8,2.17,16.16,3.74,24.4,4.72,3.63.43,7.48.83,10.36,3.07,2.33,1.82,4.03,4.84,6.96,5.27.38-1.7-.07-3.56-1.18-4.89,1.37,1.13,2.73,2.27,4.1,3.4.51-1.8-.09-3.86-1.48-5.12,1.35.65,2.69,1.29,4.04,1.94.52-.78.06-1.82-.47-2.6Z"/>
            <path class="cls-1" d="M134.79,171.3c-3.14,2.44-3.34,7.06-3.13,11.03.75,14.14,3.17,28.12,6,42.01.47,2.33.95,4.66,1.45,6.98.5,2.39,1.01,4.77,1.52,7.15.21.97.43,1.96.79,2.87,2.17.25,4.34.53,6.52.68.46.03.92.04,1.38.07.46-3.19.93-6.39,1.38-9.58.37-2.53.67-5.05,1.09-7.56,1.48-8.88,4.03-45.4,4.88-51.91.85-6.51.9-17.3-11.3-24.08-12.2-6.78-10.22,21.25-10.22,21.25"/>
            <path class="cls-7" d="M106.98,93.41s-12.45-27.19-14.2-29.9c-1.74-2.71-3.94-3.45-3.94-3.45,0,0,1.83,15.39,3.3,21.25,1.47,5.86,2.75,16.49,2.75,16.49"/>
            <path class="cls-27" d="M98.06,98.62c1.05,1.67,2.38,3.15,3.92,4.38.15.12.32.24.51.26.21.02.41-.08.6-.18,1.95-1.06,3.9-2.12,5.85-3.18.48-.26.96-.52,1.45-.79.34-.18.73-.48.64-.85-.15-.6-1.24-.34-1.54-.89-.25-.45.25-.92.64-1.24.39-.32.7-1.02.25-1.26-.15-.08-.32-.06-.49-.04-.74.08-1.48.17-2.22.25-.18.02-.37.04-.52-.06-.3-.19-.21-.64-.07-.97.3-.67.7-1.3,1.18-1.86-1.01-.18-2.03.22-2.97.64-2.38,1.07-4.67,2.35-6.81,3.84"/>
            <path class="cls-26" d="M162.07,136.49c-12.2-6.78-10.22,21.25-10.22,21.25l-.36,1.09c-3.14,2.44-3.34,7.06-3.13,11.03.75,14.14,3.17,28.12,6,42.01.36,1.76.72,3.52,1.09,5.28,2.6.66,5.2.97,7.93.88,1.46-.05,2.94-.2,4.37-.53.23-1.68.46-3.35.74-5.02,1.48-8.88,4.03-45.4,4.88-51.91.85-6.51.9-17.3-11.3-24.08Z"/>
            <path class="cls-15" d="M145.37,148.95c-12.2-6.78-10.22,21.25-10.22,21.25l-.36,1.09c-3.14,2.44-3.34,7.06-3.13,11.03.75,14.14,3.17,28.12,6,42.01.31,1.53.63,3.06.95,4.59,4.38.15,8.44-.45,12.8-1.45.12-.84.24-1.69.38-2.53,1.48-8.88,4.03-45.4,4.88-51.91.85-6.51.9-17.3-11.3-24.08Z"/>
            <path class="cls-15" d="M60.37,126.4c2.41,10.07,5.47,21.11,14.12,26.81,3.77,2.49,8.22,3.67,12.59,4.81,17.27,4.51,34.53,9.03,51.8,13.54,3.12.81,6.43,1.63,9.5.68,3.02-.93,5.38-3.56,6.25-6.59.87-3.03.31-6.39-1.26-9.13-1.85-3.21-4.92-5.51-8-7.57-18.08-12.08-39.02-19-59.68-25.77"/>
            <path class="cls-15" d="M169.1,251.42c.65-1.3.29-2.37-.6-3.25-.33-.12-.66-.24-.99-.35-6.02-2.08-16.93-6.25-16.93-6.25l.29-4.52s-11.18,0-11.18-.47c0,0,1.35,10.94,2.02,12.45.24.53.49,1.09.95,1.46.55.44,1.29.52,1.99.59,7.98.75,16,1.07,24.01.97.16-.19.31-.39.42-.61Z"/>
            <path class="cls-15" d="M185.8,242.93c.65-1.3.29-2.37-.6-3.25-.33-.12-.66-.24-.99-.35-6.02-2.08-16.93-6.25-16.93-6.25l.3-4.52s-11.18,0-11.18-.47c0,0,1.35,10.94,2.02,12.45.24.53.49,1.09.95,1.46.55.44,1.29.52,1.99.59,7.98.75,16,1.07,24.01.97.16-.19.31-.39.42-.61Z"/>
            <path class="cls-3" d="M117.83,118.65c-1.71,2.28-3.51,4.47-5.41,6.59-1.65,1.87-3.41,3.7-5.53,5.03-3.93,2.48-8.65,2.99-13.36,3-.27,0-.54,0-.82-.01-1.21,0-2.4-.05-3.59-.08-1.02-.05-2.06-.1-3.01-.45-3.79.17-7.6,0-11.35-.54l-2.24-5.24-12.65-29.63-13.02-30.5c2.7-2.37,5.53-4.56,8.47-6.56.06-.02.11-.06.16-.06,7.76-3.31,13.91-3.4,13.91-3.4,0,0,4.88.22,5.85.35.55.07,1.11.15,1.65.25.39.07.77.15,1.14.22,5.72,2.72,10.11,7.88,13.06,13.56,2.73,5.27,4.38,11,5.99,16.72.25.85.49,1.69.72,2.53h0c.08.31.17.59.25.88,1.27,4.42,2.68,8.83,4.64,12.97l.09-.14c.03.18.07.36.12.53.29.61.6,1.22.92,1.82,1.26,1.66,3.34,2.87,5.16,4.03,3.39,2.16,6.4,4.93,8.83,8.13Z"/>
            <path class="cls-23" d="M93.61,133.45c-.32-.07-.65-.15-.96-.23-7.43-1.7-14.71-4.2-21.72-7.42l-13.61-34.8c.34-1.46.77-2.89,1.29-4.28l1.64-1.37c.51,2.77,2.29,5.12,4.48,6.6,1.55,1.04,3.29,1.68,5.09,2.05.74.15,1.5.25,2.25.32.24.03.51.05.72.2.41.32.39.98.39,1.54,0,.63.07,1.24.21,1.84.44,1.86,1.5,3.57,2.67,5.04,1.56,1.94,3.39,3.64,4.67,5.81,1.12,1.92,1.78,4.12,2.66,6.2,2.73,6.49,7.63,11.69,10.13,18.29.04.07.06.15.09.21Z"/>
            <path class="cls-15" d="M60.69,110.75s18.72,3.96,29.17.57c10.46-3.4,13.21-7.64,13.21-7.64l16.79,15.29-16.24,25.48-41.01-13.87-1.93-19.82Z"/>
            <path class="cls-13" d="M44.11,127.57c-1.84.55-4.02,1.51-4.15,3.42-.13,1.99,2.07,3.23,3.94,3.95,13.39,5.22,26.83,10.45,40.81,13.72,5.98,1.4,12.15,2.44,18.25,1.71,6.1-.73,12.18-3.44,15.87-8.34.8-1.06,1.47-2.56.7-3.63-.37-.51-.98-.78-1.56-1.03-16.5-6.88-33.92-11.53-51.64-13.81-4.57-.59-9.24-1.01-13.76-.13-4.52.88-8.94,3.23-11.38,7.14"/>
            <path class="cls-17" d="M117.96,137.36c-.14-.06-.29-.12-.43-.18-.36.03-.72.08-1.07.15-6.92,1.31-12.08,6.93-18.92,8.36-6.6,1.38-13.16-1.55-19.23-3.79-12.18-4.48-24.17-9.54-36.57-13.34-.96.57-1.7,1.34-1.78,2.43-.13,1.99,2.07,3.23,3.94,3.95,13.39,5.22,26.83,10.45,40.81,13.72,5.98,1.4,12.15,2.44,18.25,1.71,6.1-.73,12.18-3.44,15.87-8.34.8-1.06,1.47-2.56.7-3.63-.37-.51-.98-.78-1.56-1.03Z"/>
            <path class="cls-1" d="M84.12,45.64c-.61,3.01-3.69,4.93-6.72,5.49-3.02.56-6.13.28-9.21.31-5.13.04-11.66-1.12-13.39-1.94-2.55-1.21-4.25-3.79-5.15-6.47-.9-2.69-1.06-5.55-1.14-8.38-.08-2.69-.07-5.46,1.02-7.92,2.49-5.57,9.43-7.42,15.5-7.87.77-.06,1.57-.09,2.37-.1,4.77-.04,9.79,1.02,12.15,4.98.38.63.66,1.29.87,1.97,1.07,3.42.43,7.43,1.42,10.97.85,3.01,2.91,5.9,2.28,8.96Z"/>
            <g>
              <path class="cls-22" d="M79.78,38.73c2.25,0,2.25-3.49,0-3.49s-2.25,3.49,0,3.49h0Z"/>
              <path class="cls-5" d="M80.35,37.17c.9,0,.9-1.4,0-1.4s-.9,1.4,0,1.4h0Z"/>
            </g>
            <path class="cls-16" d="M75.24,41.66c.44.06.9-.11,1.31-.24.45-.13.88-.3,1.32-.46.36-.13.77-.23,1.05-.5.3-.29.37-.72.19-1.1-.16-.33-.47-.59-.68-.89-.22-.32-.42-.66-.57-1.02-.32-.75-.4-1.52-.42-2.32-.02-.71-1.05-.7-1.1,0-.1,1.44.52,2.96,1.4,4.07.11.13.22.26.33.39.04.04.09.12.14.16.04.03.03.11.06.02-.03.09-.23.15-.31.18-.19.08-.38.15-.57.22-.39.16-.79.3-1.18.48-.36.17-.82.33-1.08.64-.09.11-.08.34.1.37h0Z"/>
            <path class="cls-8" d="M88.61,52.82s.05-.07,0-.07-.05.07,0,.07h0Z"/>
            <path class="cls-1" d="M120.85,145.34c-1.48-.86-2.97-1.71-4.45-2.57,1.48,1.56,1.98,3.96,1.25,5.99-1.46-1.42-2.93-2.83-4.4-4.25,1.16,1.62,1.52,3.8.94,5.71-3.32-.74-5-4.34-7.51-6.62-3.09-2.82-7.47-3.61-11.59-4.42-9.33-1.82-18.54-4.33-27.51-7.5-2.41-.85-4.83-1.76-6.91-3.24-1.95-1.39-3.53-3.22-5.01-5.1-5.82-7.37-10.4-16-12.8-25.06-.91-3.39-1.5-6.85-1.73-10.32-.32-4.56-.02-9.17,1.02-13.68,1-4.36,3.5-9.27,7.96-9.68l6.45,9.44c2.06,4.34,3.55,8.9,4.83,13.54.66,2.39,1.26,4.81,1.86,7.22,1.47,5.98,2.91,11.98,5.1,17.72.8,2.1,1.75,4.24,3.41,5.75,1.39,1.27,3.18,2,4.93,2.7,6.27,2.47,12.62,4.72,19.05,6.72,4.71,1.47,9.48,2.83,13.89,5.03,4.41,2.2,8.5,5.35,10.95,9.62.54.93.97,2.17.31,3.02Z"/>
            <g>
              <path class="cls-22" d="M70.69,39.86c2.62,0,2.63-4.08,0-4.08s-2.63,4.08,0,4.08h0Z"/>
              <path class="cls-5" d="M71.36,38.03c1.05,0,1.05-1.63,0-1.63s-1.05,1.63,0,1.63h0Z"/>
            </g>
            <path class="cls-22" d="M70.09,32.82c.09,0,.09-.15,0-.15s-.09.15,0,.15h0Z"/>
            <path class="cls-9" d="M141.26,120.01c.73.17.94,1.09,1.01,1.84.1,1.07.2,2.14.29,3.21.07.71.28,1.6.99,1.72.71.12,1.22-.65,1.51-1.31.72-1.6,1.45-3.19,2.17-4.79"/>
            <path class="cls-25" d="M59.21,39.2c-.01-.18-.04-.37-.07-.55-.04-.19-.13-.37-.21-.54l.15.36v-.04c0,.27,0,.55,0,.82.06-.3.07-.58,0-.88-.09-.39-.43-.83-.78-1.02-.54-.28-1.15-.3-1.71-.07-.41.17-.74.46-.96.86-.21.38-.25.78-.28,1.2-.04.71,0,1.44.16,2.13.09.4.25.8.45,1.16.24.44.6.92,1.04,1.18.57.34,1.29.34,1.87,0,.44-.26.78-.73.89-1.23.1-.44.15-.91.15-1.36,0-.5-.07-1.01-.19-1.5-.04-.19-.1-.37-.17-.55-.08-.21-.15-.45-.27-.65-.19-.31-.48-.59-.81-.76-.57-.31-1.25-.33-1.82,0s-.86.91-.89,1.56c-.03.46.12.85.33,1.24.07.13.14.27.2.41l-.19-.44c.15.37.26.76.32,1.16l-.06-.47c.04.3.05.6.02.91l.06-.46s-.02.08-.04.13l.17-.41-.02.04.27-.35s-.03.04-.05.05l.76-.44h-.03c.15,0,.3-.03.46-.05h-.04c.15.02.3.04.46.06h-.04c.14.04.27.1.41.16l-.03-.02.35.27c-.09-.08-.16-.17-.24-.26l.27.35c-.13-.18-.24-.37-.33-.58l.17.41c-.12-.29-.19-.6-.24-.91l.06.45c-.06-.48-.08-.98-.03-1.46l-.06.44s.01-.07.02-.11l-.17.4s.03-.07.05-.1l-.26.34.03-.03-.34.26s.05-.04.08-.05l-.4.17s.06-.02.09-.02l-.44.06s.06,0,.09,0c.26,0,.46-.04.69-.14.35-.15.6-.38.82-.69l-.25.32h0c-.23.12-.45.25-.68.39h.04c-.13,0-.27.02-.4.04h.04c-.13-.01-.26-.03-.39-.05.06.01.12.03.18.06l-.32-.14s.1.04.14.07c.42.2.87.24,1.28,0,.36-.21.66-.66.63-1.1h0Z"/>
            <path class="cls-3" d="M58.35,58.89c-6.22,2.61-12.91,5.66-16.09,11.6,4.94-.08,9.64,1.68,13.26,5.25,2.28,2.25,4,4.99,5.36,7.87.85,1.79,1.78,3.7,2.26,5.63.23.93.36,1.87.48,2.82,1.57-.8,2.92-1.93,3.52-3.55l-8.79-29.61Z"/>
            <path class="cls-3" d="M92.78,63.51c-1.66-1.73-3.56-3.18-5.76-4.23-1.09-.52-2.22-.93-3.38-1.24-1.47-.07-2.94-.23-4.4-.37-2.11-.2-4.32-.06-6.36-.69l15.9,29.15c2.2-.3,4.36-.89,6.42-1.73-1.7-6.4-3.51-14.05-2.44-20.89Z"/>
            <path class="cls-1" d="M71.92,61.85c-1.11,1.26-2.77,1.34-4.18,1.37-1.76.04-3.61-.21-5.31-.83-1.02-.37-1.91-1.1-2.89-1.59-.43-5.13-.66-10.28-.68-15.44,3.95-.65,7.92-.83,11.88-.55.27.02.57.06.76.34.19.28.21.71.21,1.1.02,1.73.05,3.47.07,5.2.02,1.84.05,3.68.07,5.52.02,1.62.04,3.25.06,4.87Z"/>
            <path class="cls-16" d="M71.86,56.98c-.6.05-1.26,0-1.95-.12-1.63-.3-6.04-.97-7.98-7.85,0-.05.14.09.28.16,1.01.55,4.45,2.08,9.58,2.28.02,1.84.05,3.68.07,5.52Z"/>
            <path class="cls-5" d="M68.83,126.96c-1.27-.63-2.55-1.26-3.82-1.89-.23-.11-.48-.25-.53-.5-.04-.2.06-.4.16-.57.92-1.6,1.86-3.23,3.16-4.54.15-.15.32-.31.52-.36.25-.06.5.03.74.13,1.19.48,2.36,1.03,3.48,1.66-1.28,2.14-2.52,4.31-3.71,6.5"/>
            <path class="cls-28" d="M74.32,218.52c2.21.8,4.43,1.65,6.74,2.12s4.55.78,6.85.99,4.71.31,7.07.24c2.2-.06,4.76-.19,6.84-.91,1.05-.36.82-1.79-.26-1.89-2.13-.19-4.44.06-6.59.12-2.28.06-4.56.06-6.84-.06s-4.45-.33-6.65-.62c-2.31-.3-4.63-.48-6.93-.9-.59-.11-.81.69-.25.89h0Z"/>
            <path class="cls-3" d="M97.09,87.89c1.45-1.02,2.2-8.57-6.58-14.61-8.78-6.04-8.87,2.74-8.87,2.74l15.45,11.88Z"/>
            <path class="cls-22" d="M58.9,51.95l-.09-5.66s-5-2.36-5-6.13,3.87-3.96,3.87-3.96c0,0,2.17,5.28,3.77,5.19,1.6-.09-1.32-7.17-1.32-7.17,0,0,3.59-2.64,3.68-4.91.09-2.26-.19-4.62-.19-4.62,0,0,8.12.09,10.95-.19,6.86,0,12.08-6.04-11.61-6.04-3.96-.09-13.31-1.42-17.08,6.23-3.77,7.64-1.89,15.29,2.45,20.1,4.34,4.81,10.57,7.17,10.57,7.17Z"/>
            <path class="cls-22" d="M67.33,33.48c.2-.05.37-.23.54-.34s.34-.24.52-.35c.36-.21.75-.34,1.15-.43s.79-.1,1.18-.07.78.21,1.18.29c.57.11.82-.56.38-.9-.4-.31-1.03-.39-1.52-.44s-1.01,0-1.49.12-.95.31-1.37.58-.97.66-1.04,1.18c-.03.26.27.41.48.36h0Z"/>
            <path class="cls-22" d="M78.03,31.88c.21-.08.42-.16.64-.21.1-.03.21-.05.32-.07.04,0,.14-.02.05,0,.06,0,.13-.01.19-.02.23-.02.46-.02.69-.01.12,0,.24.02.36.03.07,0,.07,0,0,0,.03,0,.07.01.1.02.11.02.2.02.3.02.26,0,.48-.2.51-.45.04-.27-.13-.47-.37-.57-.28-.11-.61-.13-.91-.14-.28-.01-.55.01-.83.06-.49.08-.99.24-1.39.53-.19.13-.28.35-.19.57.08.19.32.35.54.26h0Z"/>
            <path class="cls-22" d="M53.24,28.63c.33,1.36,1.86,2.08,3.25,2.46,5.94,1.62,12.69.14,17.32-3.81-1.01,1.02-2.09,2.18-2.12,3.59,2.62-.69,4.77-2.45,6.83-4.17-.92,1.32-1.84,2.65-2.76,3.97-.09.13-.19.3-.12.44.07.15.27.18.44.18,1.56.01,2.98-.9,4.04-1.99,1.39-1.44,2.38-3.43,1.92-5.35-.3-1.29-1.23-2.39-2.38-3.11-1.15-.72-2.49-1.1-3.85-1.29,0,0-17.57.56-22.89,8.99"/>
            <path class="cls-22" d="M52.53,20.12c1.06-1.31,1.46-3.05,1.41-4.73-.06-1.68-.54-3.32-1.11-4.9-.31-.86-.65-1.72-1.22-2.44-.57-.71-1.4-1.27-2.32-1.3-.91-.03-1.87.57-2.05,1.47-.1.49.03,1,.17,1.48.46,1.62,1.04,3.2,1.74,4.73-.48-1.34-1.58-2.36-2.71-3.22-1.09-.82-2.27-1.56-3.58-1.95-1.31-.39-2.77-.4-4,.2-.68.33-1.33.98-1.24,1.73.1.79.92,1.25,1.64,1.58,1.11.5,2.22,1.01,3.34,1.51-4.06-1.1-8.61-.17-11.92,2.43-.96.75-1.87,1.79-1.82,3,.02.4.15.81.45,1.07.45.39,1.11.36,1.71.31.73-.07,1.46-.13,2.19-.2-1.36.13-2.44,1.2-3.22,2.33-.98,1.4-1.69,2.99-2.1,4.65-.12.48-.21.97-.11,1.45.1.48.44.94.92,1.04.48.11.97-.15,1.38-.42.83-.53,1.62-1.12,2.36-1.77-1.36,1.81-1.78,4.28-1.1,6.44.27.86.97,1.8,1.85,1.6.26-.06.49-.22.7-.4.66-.58,1.15-1.36,1.36-2.21-.93,3.07.86,6.71,3.87,7.84.35.13.75.23,1.11.11.52-.17.78-.74.93-1.26.45-1.58.36-3.25.36-4.89s.11-3.35.92-4.78c.8-1.43,2.48-2.49,4.07-2.09"/>
            <path class="cls-25" d="M45.39,28.21c.72-.86,1.19-1.96,1.79-2.92s1.04-1.52,1.86-2.35c.75-.76,1.48-1.54,2.23-2.3.36-.37.75-.72,1.17-1.02s.97-.49,1.47-.67c.74-.27.43-1.45-.33-1.19-.56.19-1.09.46-1.65.64-.53.17-1.05.35-1.57.54-1.2.45-2.29,1.09-3.21,2-.86.85-1.63,1.81-2.29,2.83-.37.57-.65,1.15-.9,1.77s-.47,1.19-.47,1.87c0,.91,1.26,1.55,1.91.79h0Z"/>
            <path class="cls-27" d="M58.97,58.6s3.11,7.51,9.34,12.64c6.23,5.13,7.51,9.34,8.98,16.12,1.47,6.78,3.66,17.41,3.66,17.41,0,0-11.91,4.76-19.79.92-7.88-3.85-19.79-34.63-19.79-34.63,0,0,5.31-10.08,17.59-12.46Z"/>
            <path class="cls-7" d="M59.73,81.49c3.92,7.64,3.29,16.69,4.52,25.18.03.19.06.4.2.54.18.19.48.19.75.18,2.23-.09,4.45-.33,6.65-.7.49-5.35-1.88-10.51-4.43-15.24-2.03-3.78-4.33-7.59-7.86-10.03"/>
            <path class="cls-27" d="M46.33,106.97s-1.83,1.83-3.3-5.13c-1.47-6.96-3.48-14.84-3.48-18.51s-2.2-15.39,8.79-15.21c10.99.18,17.22,32.61,16.86,36.83-.37,4.21-18.87,2.02-18.87,2.02Z"/>
            <path class="cls-21" d="M67.61,112.24c-4.82.5-9.6,1.3-14.32,2.39-1.94.45-3.99.94-5.89.33-.21-.07-.42-.15-.57-.32-.35-.39-.15-1.02.14-1.45.29-.44.68-.87.67-1.39-.02-1.39-2.54-1.58-2.67-2.97-.05-.52.28-.99.51-1.46.23-.47.33-1.12-.08-1.45,7.08-1.84,14.68-.15,21.81-1.8.01.72-1.33.76-1.41,1.47-.04.35.25.62.49.88,1.02,1.14,1.13,3,.23,4.24"/>
            <path class="cls-27" d="M71.86,56.98s9.47,4.01,13.13,12.98c3.66,8.98,9.16,30.05,9.16,30.05l6.6-2.75-1.83-8.98s-.55-9.53-3.66-12.64c-3.11-3.11-2.47-12.13-2.47-12.13,0,0-3.45-7.61-20.92-6.54Z"/>
            <path class="cls-7" d="M43.5,70.95c1.16-.47,2.69-.45,3.9-.21,1.35.27,2.61.73,3.77,1.46s2.23,1.62,3.21,2.59c.91.9,1.88,2.15,3.02,2.75.25.13.6-.09.5-.39-.22-.68-.7-1.29-1.13-1.85-.5-.64-1-1.27-1.57-1.86-1.08-1.1-2.27-2.14-3.62-2.89s-2.73-1.22-4.21-1.32c-.73-.05-1.48,0-2.2.14s-1.34.51-1.98.82c-.4.2-.12.91.31.74h0Z"/>
            <path class="cls-3" d="M59.16,56.52c-.06.18-2.87,2.81-2.87,2.81l6.17,7.45,5.29-3.56-8.58-6.7Z"/>
            <path class="cls-3" d="M71.92,55.85c.18,0,3.73,1.53,3.73,1.53,0,0,.73,6.84.49,6.72-.24-.12-4.22-2.25-4.22-2.25v-6Z"/>
            <path class="cls-23" d="M67.74,63.22c.64.45,5.16,5.46,5.16,5.46l-.98-6.83,2.57,1.21-1.34,6.35-8.31-4.28,2.9-1.91Z"/>
            <polygon class="cls-1" points="72.9 68.68 71.68 60.49 66.79 62.2 72.9 68.68"/>
            <path class="cls-5" d="M79.35,43.3c-.99.24-5.29,1.02-5.29,1.02,0,0,.4,3.16,3.41,2.93,3.01-.23,1.88-3.95,1.88-3.95Z"/>
          </g>
          <g>
            <path class="cls-18" d="M300.39,24.35c-4.42-2.19-5.6-5.56-6.41-9.78-.95-4.97-4.41-5.6-4.41-5.6l-14-4.32-.15-.05-14-4.32s-3.21-1.43-6.8,2.14c-3.04,3.03-5.93,5.16-10.81,4.48-13.12-3.85-21.91-1.97-25.92,11.04l-26.48,85.9c-.31,1.02-2.57,8.62-2.75,9.74-2.17,13.86,6.34,26.58,28.65,33.45l7.02,2.16c-.17.3-.31.63-.42.97l-1.51,4.9c-.81,2.64.68,5.47,3.32,6.29,2.64.81,5.47-.68,6.29-3.32l1.51-4.9c.11-.34.17-.69.2-1.04l9.69,2.99c22.31,6.88,36.5,1.16,42.51-11.52.48-1.02,2.9-8.58,3.21-9.6l26.48-85.9c4.01-13.01-2.2-19.51-15.21-23.72ZM278.64,15.05c-.59.74-1.4,1.42-2.39,1.94-.83.44-1.69.72-2.51.83-.62.09-1.22.08-1.77-.01-.17-.03-.35-.07-.52-.12t0,0s0,0,0,0c-.17-.05-.34-.12-.5-.19-1.16-.53-2.3-1.61-3.07-3.08-.79-1.49-1.05-3.07-.81-4.34.19-1.02.7-1.83,1.5-2.26.81-.43,1.79-.38,2.75.05.9.4,1.78,1.14,2.5,2.14,2.38-.87,4.74-.43,5.57,1.15.6,1.14.26,2.61-.76,3.9Z"/>
            <g>
              <g>
                <path class="cls-4" d="M301.97,63.41l-2.67,8.67c-.1.34-.23.67-.37.99l-5.34,17.31h-.02c-6.29.95-12.88.54-19.37-1.46-8.9-2.74-16.28-8.07-21.58-14.91-.01-.01-.03-.03-.04-.05-.15-.18-.29-.37-.43-.56-.01-.02-.02-.04-.04-.05-5.3-6.84-12.68-12.18-21.58-14.92-5.2-1.6-10.47-2.18-15.59-1.86l2.64-8.57c.07-.34.16-.69.26-1.03l2.67-8.67c.16-.52.34-1.02.53-1.53,4.59-12.01,17.88-18.63,30.33-14.79l14.34,4.42,5.61,1.73,14.34,4.42c12.46,3.84,19.72,16.79,16.74,29.3-.12.53-.26,1.05-.42,1.56Z"/>
                <path class="cls-24" d="M293.57,90.39c-6.29.96-12.88.55-19.37-1.45-8.9-2.74-16.28-8.07-21.58-14.91-.01-.01-.03-.03-.04-.05-.15-.18-.29-.37-.43-.56-.01-.02-.02-.04-.04-.05-5.3-6.84-12.68-12.18-21.58-14.92-5.2-1.6-10.47-2.18-15.59-1.86l-13.4,43.49c-.26.84-2.14,7.17-2.28,8.11-1.82,11.54,5.28,22.13,23.85,27.85l10.8,3.33.13.04,10.8,3.33c18.58,5.73,30.39.96,35.4-9.59.4-.86,2.41-7.14,2.67-7.99l10.71-34.75h-.02Z"/>
              </g>
              <g>
                <path class="cls-6" d="M215.78,91.17h0c-2.75-.85-4.31-3.79-3.46-6.54l13.17-42.74c.85-2.75,3.79-4.31,6.54-3.46h0c2.75.85,4.31,3.79,3.46,6.54l-13.17,42.74c-.85,2.75-3.79,4.31-6.54,3.46Z"/>
                <path class="cls-6" d="M211.44,105.27h0c-2.75-.85-4.31-3.79-3.46-6.54l.19-.6c.85-2.75,3.79-4.31,6.54-3.46h0c2.75.85,4.31,3.79,3.46,6.54l-.19.6c-.85,2.75-3.79,4.31-6.54,3.46Z"/>
              </g>
            </g>
          </g>
          <path class="cls-12" d="M68.59,122.65s61.82,9.97,45.19,51.4c-10.37,25.83-48.73,29.18-65-5.64"/>
        </g>
      </g>
    </g>
  </g>
</svg>