<?xml version="1.0" encoding="UTF-8"?>
<svg id="Layer_2" xmlns="http://www.w3.org/2000/svg" viewBox="0 0 70.82 79.29">
  <defs>
    <style>
      .cls-1 {
        fill: #5689d6;
      }
    </style>
  </defs>
  <g id="Layer_1-2" data-name="Layer_1">
    <g>
      <path class="cls-1" d="M60.59,51.96c.94.24,1.82.47,2.71.7,4.57,1.19,7.49,4.9,7.5,9.63.02,5.07,0,10.14,0,15.21,0,1.3-.48,1.78-1.78,1.78-20.1,0-40.2,0-60.3,0-1.31,0-1.79-.47-1.79-1.77,0-5.1,0-10.2,0-15.3,0-.32-.06-.67.05-.95.56-1.47.06-2.64-.91-3.75-.51-.58-.88-1.29-1.31-1.94-.91-1.37-.84-1.83.42-2.83,2.84-2.24,5.66-4.5,8.52-6.72.56-.44.7-.86.73-1.57.1-2.54.27-5.08.57-7.61.68-5.81,1.52-11.6,2.15-17.41C18.25,9.38,26.43,1.14,36.46.12c12.24-1.24,22.67,7.22,24.14,19.51.86,7.19,1.82,14.36,2.69,21.55.43,3.53-.27,6.86-2.16,9.9-.17.27-.33.54-.54.88ZM48.59,48.98c2.88.72,5.71,1.44,8.54,2.11.26.06.7-.18.89-.41,2.13-2.75,2.92-5.89,2.5-9.31-.88-7.19-1.83-14.36-2.7-21.55-1.29-10.7-10.48-18.05-21.22-16.9-8.56.91-15.67,8.05-16.66,16.6-.79,6.82-1.7,13.62-2.54,20.43-.13,1.04-.2,2.09-.33,3.4,2.2-1.74,4.17-3.28,6.11-4.87.14-.12.09-.55.04-.82-.33-1.84-.89-3.67-.98-5.53-.16-3.3-.06-6.61-.04-9.91.02-2.45.77-4.68,2.26-6.62,4.34-5.64,10.65-4.8,13.81-.76,1.4,1.78,3.4,2.85,5.67,3.05,2.36.2,4.73.15,7.1.17,2.71.03,4.46,1.74,4.47,4.45,0,2.87-.03,5.74,0,8.61.09,5.77-2.01,10.49-6.54,14.11-.21.17-.38.51-.4.78-.05.95-.02,1.91-.02,2.97ZM41.6,45.53c5.45-.83,10.43-5.89,10.94-11.5.35-3.91.18-7.87.21-11.81,0-.82-.56-1.33-1.39-1.36-.84-.03-1.68.01-2.52-.01-1.9-.06-3.83.02-5.71-.27-3.03-.47-5.44-2.12-7.46-4.42-1.71-1.95-4.36-2.34-6.54-1.04-2.57,1.54-4.02,3.85-4.11,6.84-.11,3.56-.07,7.13.01,10.69.03,1.25.38,2.48.61,3.9,1.19-.93,2.17-1.73,3.19-2.49,3.02-2.23,6.91-2.36,9.9-.34,3.07,2.07,4.42,5.68,3.5,9.37-.19.78-.4,1.56-.63,2.43ZM7.42,54.53c.4.6.75,1.16,1.12,1.71,1.95,2.89,4.78,3.86,8.08,2.79,4.04-1.31,7.52-.39,10.4,2.73,1.69,1.83,3.31,3.72,4.96,5.58.18.21.33.45.62.87.25-.92.36-1.54.58-2.13.2-.53.05-.82-.36-1.18-1.16-1.02-2.04-2.32-2.12-3.87-.14-2.62-.28-5.28-.02-7.88.32-3.13,2.71-5.3,5.83-5.8.54-.09,1.09-.07,1.75-.1.48-1.93,1-3.88,1.43-5.85.11-.52.04-1.11-.07-1.64-.88-4.33-5.76-6.13-9.25-3.39-5.49,4.3-10.94,8.64-16.41,12.97-2.17,1.72-4.35,3.44-6.56,5.19ZM56.75,73.4c.06-.02.12-.04.18-.06,0-1.21-.01-2.42,0-3.63.01-.95.57-1.56,1.39-1.55.81,0,1.37.61,1.38,1.56.02,1.65,0,3.3,0,4.95,0,.6,0,1.19,0,1.79h8.33c0-.32,0-.6,0-.88,0-4.32,0-8.63,0-12.95,0-3.85-1.98-6.4-5.7-7.34-2.74-.69-5.49-1.38-8.23-2.07-1.81-.45-3.62-.9-5.32-1.32-.24,1.37-.31,2.69-.72,3.9-.41,1.24-1.14,2.37-1.79,3.65,3.42,4.56,6.95,9.25,10.47,13.94ZM20.82,76.45h19.85c-1.64-3.01-3.24-5.94-4.94-9.07-.36,1.33-.68,2.4-.95,3.48-.17.69-.45,1.27-1.2,1.44-.73.16-1.18-.29-1.62-.79-2.24-2.54-4.51-5.06-6.74-7.61-2.18-2.51-4.81-3.26-7.95-2.15-1.65.58-3.34.68-5.04.29-.8-.18-1.57-.5-2.44-.78v15.22h8.26v-.88c0-1.8,0-3.59,0-5.39,0-.2,0-.41,0-.61.06-.83.6-1.4,1.35-1.42.79-.02,1.4.56,1.41,1.44.02,2.26,0,4.52,0,6.85ZM55.6,76.5c-3.81-5.08-7.52-10.03-11.34-15.11-.91,2.96-2.81,4.67-5.74,5.3,1.76,3.22,3.46,6.37,5.2,9.51.09.17.42.29.63.29,3.67.02,7.35.01,11.24.01ZM41.65,57.04c0-.96.02-1.91,0-2.87-.06-2.31-1.91-4.12-4.19-4.1-2.24.01-4.08,1.81-4.13,4.07-.04,1.91-.03,3.82,0,5.73.04,2.31,1.91,4.12,4.18,4.1,2.24-.01,4.07-1.8,4.13-4.07.03-.95,0-1.91,0-2.87ZM44.5,56.69c2.1-2.94,1.03-6.26,1.36-9.45-1.52.46-2.88.87-4.36,1.32,2.81,2.07,3.17,4.99,3,8.14Z"/>
      <path class="cls-1" d="M2.59,46.02c-.34-.33-.85-.64-1.09-1.08-.33-.6-.08-1.26.51-1.57,1.94-1.02,3.89-2,5.87-2.94.68-.32,1.41.07,1.71.75.3.69.05,1.41-.72,1.81-1.71.89-3.45,1.74-5.18,2.6-.28.14-.58.23-1.1.44Z"/>
      <path class="cls-1" d="M4.13,37.54c-.87,0-1.74.02-2.6,0-.94-.02-1.54-.6-1.52-1.42.02-.79.6-1.34,1.5-1.35,1.76-.02,3.53-.02,5.29,0,.94,0,1.54.6,1.52,1.42-.02.78-.61,1.33-1.5,1.35-.9.02-1.79,0-2.69,0Z"/>
      <path class="cls-1" d="M30.16,27.09c-.64-.33-1.14-.56-1.61-.84-.73-.42-.96-1.16-.62-1.84.35-.69,1.08-.98,1.83-.62,1.41.67,2.81,1.35,4.18,2.09,1.04.57,1.05,1.87.02,2.44-1.37.75-2.77,1.43-4.18,2.1-.76.36-1.49.09-1.84-.6-.35-.68-.12-1.42.6-1.85.25-.15.51-.26.77-.4.25-.13.49-.27.86-.48Z"/>
      <path class="cls-1" d="M47.58,27.11c.64.33,1.13.57,1.6.83.74.43.99,1.14.67,1.83-.35.74-1.1,1.02-1.89.64-1.38-.66-2.75-1.33-4.1-2.05-1.09-.59-1.11-1.89-.02-2.48,1.37-.74,2.77-1.42,4.18-2.09.75-.35,1.48-.06,1.82.64.32.66.11,1.38-.56,1.79-.49.3-1.01.54-1.69.89Z"/>
      <path class="cls-1" d="M30.75,44.44c-.32.49-.48.91-.79,1.18-3.17,2.75-6.35,5.48-9.54,8.21-.69.59-1.49.54-2.01-.06-.55-.61-.47-1.45.24-2.07,3.15-2.72,6.32-5.43,9.48-8.15.5-.43,1.09-.67,1.66-.28.38.26.62.74.97,1.17Z"/>
    </g>
  </g>
</svg>