<?xml version="1.0" encoding="UTF-8"?>
<svg id="Layer_2" xmlns="http://www.w3.org/2000/svg" viewBox="0 0 66.33 43.33">
  <g id="Layer_1-2" data-name="Layer_1">
    <g>
      <path d="M66.33,21.38c-3.89,5.33-8.17,10.17-13.3,14.23-3.32,2.62-6.91,4.76-10.91,6.14-7.09,2.44-14.08,2.05-20.89-1.03C12.33,36.71,5.72,30.06.17,22.23c-.2-.28-.24-.91-.06-1.17C6.11,12.47,13.3,5.25,23.4,1.64c7.77-2.78,15.37-1.93,22.7,1.74,6.93,3.48,12.43,8.69,17.4,14.51.96,1.12,1.86,2.28,2.83,3.48ZM18.87,21.54c-.05,7.85,6.17,14.27,13.9,14.32,8,.06,14.45-6.16,14.5-13.99.06-7.84-6.19-14.32-13.86-14.39-8.11-.07-14.48,6.09-14.54,14.06Z"/>
      <path d="M32.96,31.95c-5.65-.01-10.22-4.58-10.22-10.21,0-5.83,4.56-10.37,10.41-10.35,5.65.02,10.21,4.66,10.18,10.37-.02,5.66-4.64,10.2-10.37,10.19ZM33.02,17.93c-2.08,0-3.78,1.69-3.77,3.74.01,2.08,1.69,3.74,3.77,3.74,2.07,0,3.76-1.68,3.76-3.75,0-2.07-1.68-3.74-3.77-3.74Z"/>
    </g>
  </g>
</svg>