<?xml version="1.0" encoding="UTF-8"?>
<svg id="Layer_2" xmlns="http://www.w3.org/2000/svg" xmlns:xlink="http://www.w3.org/1999/xlink" viewBox="0 0 1039.73 1311.23">
  <defs>
    <style>
      .cls-1 {
        fill: #fff;
      }

      .cls-2, .cls-3, .cls-4 {
        fill: none;
      }

      .cls-5 {
        fill: #ffc3aa;
      }

      .cls-6 {
        fill: #9f361a;
      }

      .cls-3 {
        stroke: #9f361a;
      }

      .cls-3, .cls-4 {
        stroke-linecap: round;
        stroke-linejoin: round;
        stroke-width: 5.7px;
      }

      .cls-4 {
        stroke: #f4f4f4;
      }

      .cls-7 {
        clip-path: url(#clippath);
      }

      .cls-8 {
        fill: #101010;
      }
    </style>
    <clipPath id="clippath">
      <rect class="cls-2" x="22.96" y="20.68" width="993.81" height="1098.76" transform="translate(1014.96 1161.75) rotate(-177.56)"/>
    </clipPath>
  </defs>
  <g id="Layer_1-2" data-name="Layer_1">
    <g>
      <g class="cls-7">
        <g>
          <polygon class="cls-5" points="782.78 838.73 815.17 1150.7 662.18 1144.17 643.22 860.7 782.78 838.73"/>
          <path class="cls-1" d="M712.68,588.92s86.28,55.21,102.68,276.92l-167.25,46.15,64.58-323.08Z"/>
        </g>
        <g>
          <path class="cls-5" d="M611.54,323c3.91,23.57,26.19,39.5,49.75,35.58,23.57-3.91,39.5-26.19,35.58-49.75-3.91-23.57-26.19-39.5-49.75-35.58-23.57,3.91-39.5,26.19-35.58,49.75Z"/>
          <polygon class="cls-5" points="583.85 412.36 574.04 555.78 421.13 566.81 459.42 303.82 583.85 412.36"/>
          <path class="cls-6" d="M578.28,493.51s-104.69-17.21-111.22-113.05l115.86,47.9-4.64,65.15Z"/>
          <path class="cls-5" d="M642.85,142.3c8.03,9.32,28.5,44.68,29.37,56.96,2.94,41.01,7.6,141.42-12.98,184.45-26.18,54.74-76.81,84.79-149.36,60.56,0,0-66.96-11.18-90.66-146.31-36.1-205.82,141.79-250.71,223.64-155.66Z"/>
          <g>
            <path class="cls-8" d="M633.9,298.14c.83,5.4,5.89,9.11,11.29,8.27,5.4-.83,9.11-5.89,8.27-11.29-.83-5.4-5.89-9.11-11.29-8.27-5.4.83-9.11,5.89-8.27,11.29Z"/>
            <path class="cls-8" d="M546.5,291c.83,5.4,5.89,9.11,11.29,8.27,5.4-.83,9.1-5.89,8.27-11.29-.83-5.4-5.89-9.1-11.29-8.27-5.4.83-9.11,5.89-8.27,11.29Z"/>
            <polyline class="cls-3" points="613.47 314.18 618.62 338.42 602.41 341.01"/>
            <path class="cls-8" d="M580.7,241.15h0c.15,8.08-6.66,14.51-14.72,13.87-12.16-.97-29.97-1.24-46.83,2.76-6.27,1.49-12.61-2.03-14.35-8.24h0c-1.66-5.95,1.8-11.52,7.32-14.28,11.31-5.66,29.1-13.84,57.35-7.31,6.34,1.46,11.1,6.69,11.22,13.2Z"/>
            <path class="cls-8" d="M622.09,242.32h0c.15,7.89,4.94,14.86,10.35,15.05,8.16.28,20.16,1.81,31.65,7.42,4.27,2.09,8.44-.71,9.41-6.61h0c.93-5.65-1.57-11.44-5.38-14.7-7.8-6.67-20.04-16.46-38.88-12.93-4.23.79-7.27,5.43-7.15,11.77Z"/>
            <path class="cls-1" d="M612.63,358.19l-64.99-5s-2.03,23.74,29.4,26.25c31.43,2.51,35.59-21.25,35.59-21.25Z"/>
          </g>
          <path class="cls-8" d="M670.76,192.8s-10.36-17.3-22.15-11.87c-20.04,9.22-53.57,19.4-132.56-9.21,0,0-37.81-16.04-41.5,12.75-3.68,28.79,1.01,120.05,1.01,120.05l-28.33,2.58-40.46-55.59-6.36-102.81c-1.71-27.56,17.19-52.08,44.26-57.56,45.57-9.23,114-16.93,196.11,4.99,22.35,5.97,36.89,29.52,32.3,52.2l-2.33,44.49Z"/>
          <g>
            <path class="cls-5" d="M367.02,307.09c4.37,26.33,29.26,44.13,55.59,39.76,26.33-4.37,44.13-29.26,39.76-55.59-4.37-26.33-29.26-44.13-55.59-39.76-26.33,4.37-44.13,29.26-39.76,55.59Z"/>
            <path class="cls-3" d="M394.91,282.35s36.45-5.51,40.75,34.37"/>
          </g>
        </g>
        <g>
          <path class="cls-1" d="M606.75,543.34s71.1,16.73,105.93,45.58l-7.78,683.33c-299.21,112.68-502.7-54.84-502.7-54.84l98.95-642.71s10.87-36,111.25-39.53l194.36,8.16Z"/>
          <path class="cls-5" d="M369.05,539.38s110.29-24.66,237.7,3.97l-51.2,117.04-186.5-121Z"/>
          <line class="cls-4" x1="709.19" y1="895.14" x2="709.21" y2="755.5"/>
        </g>
      </g>
      <g>
        <g>
          <path class="cls-5" d="M92.39,1086.93l79.15-289.62,176.69,17.8-134.35,314.17c-12.77,29.87-45.77,45.57-77.01,36.65h0c-33.96-9.71-53.79-44.93-44.48-79Z"/>
          <g>
            <path class="cls-1" d="M345.84,544.75s-192,17.74-228.05,294.29l235.69,92.2,27.09-225.7-34.74-160.78Z"/>
            <polyline class="cls-4" points="308.53 913.65 345.38 930.89 393.52 789.75"/>
          </g>
        </g>
        <g>
          <path class="cls-5" d="M520.67,1119.97l-353.93,47.54c-28.01,6.94-65.51-21.15-72.05-49.26h0c-7.26-31.26,16.36-84.16,48.4-85.99l360.8,29.37,16.78,58.34Z"/>
          <path class="cls-5" d="M503.89,1061.63s161.12-31.34,157.04,64.32l-140.26-5.98-16.78-58.34Z"/>
        </g>
      </g>
      <g>
        <path class="cls-5" d="M831.64,1133.24s1.94-45.5,54.38-35.91c0,0,26.25,16.76,19.67,85.6-.78,8.12-8.93,14.2-18.37,13.8h0c-8.58-.37-15.7-5.97-16.93-13.32l-8.12-48.85-30.63-1.31Z"/>
        <path class="cls-5" d="M886.01,1097.32s22.5-9.81,43.19,1.96c0,0,19.87-4.02,33.97,6.88,0,0,7.47-2.65,18.28,3.15,7.67,4.12,11.99,12.67,11.82,21.37-.27,14.27-2.9,38.79-16.69,52.66-3.22,3.24-7.89,4.41-12.22,2.99-3.47-1.14-5.49-.36-7.45-5.06,0,0-5.48,9.09-13.98,8.73-8.5-.36-12.7-5.12-14.44-11.08,0,0,2.64,22.24-25.79,15.36-28.43-6.89-16.69-96.96-16.69-96.96Z"/>
      </g>
    </g>
  </g>
</svg>